<?xml version="1.0" standalone="no"?>
<!DOCTYPE svg PUBLIC "-//W3C//DTD SVG 1.1//EN" "http://www.w3.org/Graphics/SVG/1.1/DTD/svg11.dtd" >
<svg xmlns="http://www.w3.org/2000/svg">
<metadata>Generated by IcoMoon</metadata>
<defs>
<font id="icomoon" horiz-adv-x="1024">
<font-face units-per-em="1024" ascent="960" descent="-64" />
<missing-glyph horiz-adv-x="1024" />
<glyph unicode="&#x20;" horiz-adv-x="512" d="" />
<glyph unicode="&#xe900;" glyph-name="admin_bulk-import" horiz-adv-x="745" d="M46.545-8.145c319.612 0 328.921 0 648.533 0 0 3.103 0 6.206 0 12.412 0 111.709 0 111.709 0 223.418 0 18.618 12.412 27.927 31.030 24.824 9.309-3.103 12.412-9.309 15.515-18.618 0-3.103 0-6.206 0-9.309 0-121.018 0-127.224 0-248.242 0-21.721-9.309-31.030-27.927-31.030-328.921 0-353.745 0-682.667 0-21.721 0-27.927 9.309-27.927 31.030 0 121.018 0 127.224 0 251.345 0 18.618 15.515 31.030 31.030 24.824 9.309-3.103 12.412-9.309 15.515-18.618 0-3.103 0-6.206 0-12.412 0-111.709 0-105.503 0-217.212-3.103-3.103-3.103-9.309-3.103-12.412zM394.085 221.479c3.103 3.103 6.206 6.206 9.309 9.309 37.236 37.236 74.473 77.576 114.812 114.812 6.206 6.206 12.412 9.309 21.721 9.309 15.515-3.103 24.824-18.618 18.618-31.030-3.103-3.103-6.206-6.206-6.206-9.309-52.752-52.752-105.503-105.503-158.255-158.255-15.515-15.515-24.824-15.515-40.339 0-52.752 52.752-105.503 105.503-158.255 158.255-9.309 3.103-12.412 12.412-9.309 21.721 6.206 18.618 24.824 21.721 37.236 9.309 12.412-9.309 21.721-21.721 34.133-34.133 27.927-27.927 55.855-55.855 83.782-83.782 3.103-3.103 3.103-6.206 6.206-9.309 0 0 3.103 0 3.103 3.103s0 6.206 0 9.309c0 226.521 0 453.042 0 676.461 0 15.515 6.206 24.824 18.618 27.927 12.412 0 24.824-6.206 24.824-21.721 0-3.103 0-6.206 0-9.309 0-223.418 0-446.836 0-673.358 0 0 0-3.103 0-9.309zM229.624 472.824c24.824 24.824 31.030 31.030 52.752 52.752 12.412 12.412 34.133 9.309 40.339-9.309 3.103-9.309 0-18.618-9.309-24.824-21.721-21.721-27.927-31.030-52.752-52.752-12.412-12.412-24.824-24.824-37.236-37.236s-24.824-12.412-37.236 0c-34.133 34.133-68.267 71.37-105.503 105.503-6.206 6.206-12.412 15.515-9.309 24.824s9.309 15.515 18.618 15.515c9.309 0 15.515-3.103 21.721-9.309 21.721-21.721 46.545-43.442 68.267-68.267 0 3.103 0 6.206 0 9.309 0 142.739 0 285.479 0 428.218 0 3.103 0 9.309 0 12.412 3.103 9.309 12.412 15.515 24.824 15.515 9.309 0 18.618-9.309 18.618-18.618 0-3.103 0-6.206 0-9.309 0-142.739 0-282.376 0-425.115 6.206 0 6.206-3.103 6.206-9.309zM512 469.721c0 3.103 0 9.309 0 12.412 0 142.739 0 285.479 0 428.218 0 15.515 9.309 27.927 24.824 24.824 12.412 3.103 21.721-6.206 21.721-15.515 0-3.103 0-6.206 0-9.309 0-139.636 0-282.376 0-422.012 0-3.103 0-6.206 0-12.412 3.103 3.103 6.206 6.206 9.309 9.309 21.721 21.721 40.339 40.339 62.061 62.061 15.515 15.515 34.133 9.309 40.339-9.309 3.103-9.309-3.103-15.515-9.309-21.721-9.309-12.412-21.721-21.721-31.030-34.133-24.824-24.824-46.545-49.648-71.37-71.37-12.412-12.412-24.824-12.412-40.339 0-34.133 34.133-55.855 55.855-89.988 89.988-6.206 6.206-12.412 15.515-9.309 24.824s9.309 15.515 18.618 15.515c9.309 0 15.515-3.103 21.721-9.309 18.618-18.618 24.824-24.824 46.545-46.545 0-6.206 6.206-12.412 6.206-15.515z" />
<glyph unicode="&#xe901;" glyph-name="admin_edit-companies" horiz-adv-x="1457" d="M1216.985 152.615c0 59.077 0 114.215 0 173.292l-47.262-47.262c0-90.585 0-181.169 0-267.815 0-3.938 0-7.877 0-15.754-39.385 0-78.769 0-118.154 0 0 55.138 0 110.277 0 165.415l-47.262-47.262c0-39.385 0-78.769 0-118.154-27.569 0-55.138 0-86.646 0 0 3.938 0 11.815 0 15.754 0 23.631 0 47.262 0 70.892-15.754 0-27.569-3.938-43.323-3.938h-11.815c0-19.692 0-43.323 0-63.015 0-3.938 0-7.877 0-15.754-59.077 0-118.154 0-181.169 0 0 55.138 0 106.338 0 161.477 0 19.692 0 39.385 0 59.077 0 3.938 0 11.815 0 15.754 0 11.815 0 19.692 3.938 31.508 0 3.938 0 11.815 0 15.754-3.938 0-3.938 0-7.877 3.938 0 39.385 0 153.6 0 196.923 3.938 0 7.877 0 11.815-3.938 31.508-7.877 59.077-19.692 90.585-27.569l39.385 39.385c-3.938 0-11.815 3.938-15.754 3.938-39.385 11.815-74.831 23.631-114.215 35.446-3.938 0-11.815 7.877-11.815 7.877 0 39.385 0 114.215 0 153.6 59.077-19.692 118.154-35.446 173.292-55.138 3.938 0 7.877-3.938 7.877-7.877 0-23.631 0-63.015 0-98.462 15.754 15.754 31.508 31.508 47.262 47.262 0 90.585 0 181.169 0 267.815 0 11.815-3.938 15.754-11.815 19.692-78.769 27.569-153.6 55.138-232.369 86.646-7.877 3.938-15.754 3.938-23.631 0-59.077-35.446-122.092-70.892-181.169-106.338-7.877-3.938-11.815-11.815-11.815-19.692 0-129.969 0-259.938 0-389.908 0-3.938 0-11.815 0-19.692-35.446 15.754-63.015 31.508-98.462 47.262-7.877 3.938-15.754 3.938-19.692 0-55.138-19.692-114.215-35.446-169.354-55.138-7.877-3.938-11.815-7.877-11.815-15.754 0-74.831 0-153.6 0-228.431 0-3.938 0-7.877 0-15.754-15.754 3.938-27.569 7.877-43.323 11.815-7.877 0-19.692 0-27.569 0-19.692-7.877-39.385-15.754-59.077-23.631-7.877-3.938-11.815-7.877-11.815-15.754 0-51.2 0-98.462 0-149.662 0-3.938 0-7.877 0-11.815h1201.231v189.046c11.815-3.938 11.815 0 11.815 3.938zM681.354 885.169c3.938 0 7.877-3.938 11.815-3.938 51.2-19.692 102.4-39.385 157.538-59.077 7.877-3.938 11.815-7.877 11.815-15.754 0-23.631 0-106.338 0-133.908-43.323 11.815-82.708 27.569-122.092 39.385-15.754 7.877-31.508 11.815-51.2 19.692-3.938 0-7.877 3.938-7.877 7.877 0 27.569 0 114.215 0 145.723zM149.662-4.923c-31.508 0-59.077 0-90.585 0 0 27.569 0 59.077 0 86.646 0 0 0 3.938 0 3.938 15.754 3.938 27.569 15.754 43.323 15.754s31.508-7.877 47.262-11.815c0-35.446 0-63.015 0-94.523zM319.015-4.923c-39.385 0-78.769 0-118.154 0 0 3.938 0 11.815 0 15.754 0 114.215 0 224.492 0 338.708 0 11.815 3.938 15.754 15.754 19.692 31.508 7.877 63.015 19.692 90.585 31.508 3.938 0 7.877 3.938 11.815 3.938 0-141.785 0-275.692 0-409.6zM452.923-4.923c-27.569 0-55.138 0-86.646 0 0 133.908 0 263.877 0 401.723 27.569-11.815 55.138-27.569 78.769-39.385 3.938 0 7.877-7.877 7.877-15.754 0-78.769 0-157.538 0-236.308 0-39.385 0-74.831 0-110.277zM500.185 794.585c0 3.938 3.938 3.938 3.938 7.877 43.323 27.569 86.646 51.2 129.969 78.769 0-31.508 0-118.154 0-145.723 0-3.938-3.938-7.877-7.877-7.877-43.323-23.631-82.708-43.323-126.031-63.015 0 0 0 0-3.938 0 3.938 23.631 3.938 106.338 3.938 129.969zM500.185 597.662c0 3.938 3.938 11.815 7.877 11.815 43.323 23.631 82.708 43.323 126.031 63.015 0 0 0 0 3.938 0 0-35.446 0-114.215 0-149.662 0-3.938-3.938-7.877-3.938-7.877-43.323-23.631-86.646-43.323-129.969-66.954 0 0 0 0 0 0-3.938 27.569-7.877 129.969-3.938 149.662zM634.092-4.923c-43.323 0-90.585 0-137.846 0 0 3.938 0 11.815 0 15.754 0 43.323 0 86.646 0 133.908 0 3.938 3.938 11.815 3.938 11.815 43.323 23.631 86.646 43.323 129.969 66.954 3.938-78.769 3.938-153.6 3.938-228.431zM634.092 282.585c0-3.938-3.938-7.877-7.877-11.815-43.323-23.631-82.708-43.323-126.031-63.015 0 0-3.938 0-3.938 0 0 27.569 3.938 129.969 0 153.6-3.938 27.569 7.877 43.323 31.508 55.138 31.508 11.815 59.077 31.508 90.585 47.262 3.938 3.938 7.877 3.938 15.754 7.877 0-39.385 0-153.6 0-189.046zM1429.662 704c-27.569 55.138-102.4 122.092-129.969 122.092s-78.769-47.262-106.338-86.646c-3.938-3.938-3.938-7.877-3.938-11.815s3.938-7.877 3.938-7.877c47.262-47.262 90.585-90.585 137.846-137.846 3.938-3.938 7.877-7.877 11.815-7.877s3.938 3.938 7.877 3.938c23.631 19.692 47.262 43.323 66.954 70.892 3.938 7.877 11.815 15.754 11.815 23.631 11.815 7.877 7.877 19.692 0 31.508zM1150.031 656.738c-7.877 7.877-15.754 11.815-19.692 11.815-7.877 0-15.754-3.938-19.692-11.815-66.954-66.954-129.969-129.969-196.923-196.923-15.754-15.754-31.508-31.508-47.262-47.262-23.631-23.631-51.2-51.2-74.831-74.831-3.938-3.938-11.815-15.754-11.815-23.631-3.938-19.692-3.938-39.385-7.877-59.077 0-15.754-3.938-31.508-3.938-47.262 0-3.938 0-7.877 0-11.815-3.938-35.446 7.877-47.262 47.262-47.262 0 0 3.938 0 7.877 0 15.754 0 35.446 3.938 51.2 7.877 15.754 0 35.446 3.938 51.2 7.877 3.938 0 7.877 0 11.815 0 7.877 0 15.754 3.938 19.692 7.877 19.692 19.692 35.446 35.446 55.138 55.138 15.754 15.754 31.508 31.508 47.262 47.262 31.508 31.508 63.015 63.015 94.523 94.523 11.815 11.815 23.631 23.631 35.446 35.446 31.508 31.508 59.077 59.077 90.585 90.585 11.815 11.815 11.815 23.631 0 39.385-47.262 39.385-90.585 78.769-129.969 122.092z" />
<glyph unicode="&#xe902;" glyph-name="admin_history" horiz-adv-x="1280" d="M798.72 345.6c0-220.16-179.2-399.36-399.36-399.36s-399.36 179.2-399.36 399.36c0 220.16 179.2 399.36 399.36 399.36 225.28 0 399.36-179.2 399.36-399.36zM460.8 458.24c0 40.96 0 76.8 0 117.76 0 5.12 0 15.36-5.12 20.48-10.24 25.6-35.84 40.96-66.56 30.72-25.6-5.12-40.96-25.6-40.96-56.32 0-61.44 0-128 0-189.44 0-10.24 0-15.36-10.24-20.48-30.72-30.72-56.32-56.32-87.040-87.040-20.48-25.6-20.48-56.32 0-81.92 20.48-20.48 56.32-20.48 76.8 0 35.84 35.84 71.68 71.68 107.52 107.52 20.48 15.36 25.6 30.72 25.6 51.2 0 35.84 0 71.68 0 107.52zM1228.8 954.88c-220.16 0-957.44 0-1172.48 0-25.6 0-46.080-15.36-40.96-40.96 0-20.48 15.36-35.84 35.84-35.84 5.12 0 10.24 0 15.36 0 215.040 0 942.080 0 1157.12 0 5.12 0 10.24 0 15.36 0 20.48 0 30.72 15.36 35.84 35.84-5.12 25.6-20.48 40.96-46.080 40.96zM1228.8 724.48c-220.16 0-163.84 0-384 0-25.6 0-46.080-15.36-40.96-40.96 0-20.48 15.36-35.84 35.84-35.84 5.12 0 10.24 0 15.36 0 215.040 0 153.6 0 368.64 0 5.12 0 10.24 0 15.36 0 20.48 0 30.72 15.36 35.84 35.84-5.12 25.6-20.48 40.96-46.080 40.96zM1228.8 494.080c-220.16 0-51.2 0-271.36 0-25.6 0-46.080-15.36-40.96-40.96 0-20.48 15.36-35.84 35.84-35.84 5.12 0 10.24 0 15.36 0 215.040 0 40.96 0 256 0 5.12 0 10.24 0 15.36 0 20.48 0 30.72 15.36 35.84 35.84-5.12 25.6-20.48 40.96-46.080 40.96zM1228.8 263.68c-220.16 0-51.2 0-271.36 0-25.6 0-46.080-15.36-40.96-40.96 0-20.48 15.36-35.84 35.84-35.84 5.12 0 10.24 0 15.36 0 215.040 0 40.96 0 256 0 5.12 0 10.24 0 15.36 0 20.48 0 30.72 15.36 35.84 35.84-5.12 25.6-20.48 40.96-46.080 40.96zM1228.8 33.28c-220.16 0-163.84 0-384 0-25.6 0-46.080-15.36-40.96-40.96 0-20.48 15.36-35.84 35.84-35.84 5.12 0 10.24 0 15.36 0 215.040 0 153.6 0 368.64 0 5.12 0 10.24 0 15.36 0 20.48 0 30.72 15.36 35.84 35.84-5.12 25.6-20.48 40.96-46.080 40.96z" />
<glyph unicode="&#xe903;" glyph-name="ask4similar" horiz-adv-x="1483" d="M967.503 772.855c0 7.062-3.531 10.593-7.062 17.655-3.531 3.531-10.593 7.062-17.655 7.062s-14.124-3.531-17.655-7.062l-349.572-296.607-10.593-10.593-360.166 303.669c-7.062 7.062-14.124 10.593-21.186 10.593-10.593 0-17.655-3.531-21.186-14.124-3.531-7.062-7.062-17.655 7.062-31.779l247.172-208.331c0 0 14.124-14.124 14.124-14.124l-10.593-10.593c-3.531 0-3.531-3.531-7.062-3.531l-243.641-229.517c-17.655-14.124-14.124-24.717-10.593-31.779s10.593-14.124 21.186-14.124c7.062 0 14.124 3.531 17.655 7.062l268.359 250.703 74.152-60.028c3.531-3.531 3.531-3.531 7.062-7.062s10.593-7.062 14.124-7.062c7.062 0 10.593 3.531 17.655 7.062l77.683 67.090 95.338-88.276c0 0 7.062 24.717 28.248 38.841l-84.745 77.683 261.297 218.924c7.062 14.124 10.593 21.186 10.593 28.248zM734.455 133.738c-187.145 0-399.007 0-561.434 0-21.186 0-45.903 0-67.090 14.124-38.841 21.186-60.028 56.497-60.028 98.869 0 187.145 0 370.759 0 557.903 0 60.028 49.434 109.462 109.462 112.993 3.531 0 7.062 0 14.124 0h218.924c190.676 0 384.883 0 575.559 0 0 0 0 0 0 0 42.372 0 74.152-14.124 98.869-45.903 17.655-21.186 24.717-42.372 24.717-70.621 0-60.028 0-77.683 0-109.462v-31.779c0 0 14.124 21.186 38.841 24.717 0 0 0 52.966 0 116.524 0 35.31-10.593 67.090-31.779 91.807-31.779 38.841-74.152 60.028-127.117 60.028 0 0 0 0 0 0-190.676 0-384.883 0-575.559 0h-225.986c-3.531 0-10.593 0-14.124 0-81.214-3.531-148.303-67.090-148.303-148.303 0-187.145 0-370.759 0-557.903 0-56.497 28.248-102.4 77.683-130.648 28.248-17.655 60.028-21.186 84.745-21.186 0 0 0 0 0 0 162.428 0 374.29 0 561.434 0h88.276l-67.090 38.841h-14.124zM1423.007 285.572c-3.531 3.531-3.531 3.531 0 7.062 10.593 14.124 17.655 28.248 28.248 42.372l7.062 10.593c10.593 17.655 14.124 38.841 10.593 52.966-3.531 17.655-17.655 28.248-38.841 38.841-21.186 7.062-42.372 14.124-63.559 24.717 0 24.717 0 45.903-3.531 70.621 0 17.655-10.593 35.31-24.717 42.372-14.124 10.593-31.779 10.593-52.966 7.062-21.186-7.062-42.372-10.593-63.559-17.655-3.531 0-3.531 0-3.531 0-10.593 14.124-21.186 28.248-35.31 42.372l-7.062 7.062c-17.655 21.186-35.31 24.717-45.903 24.717 0 0 0 0 0 0-10.593 0-28.248-3.531-45.903-24.717l-7.062-10.593c-10.593-10.593-21.186-24.717-28.248-35.31-3.531-3.531-3.531-3.531-3.531-3.531s0 0-7.062 0c-17.655 7.062-31.779 10.593-45.903 14.124l-14.124 3.531h-3.531c-42.372 0-67.090-17.655-67.090-56.497v-17.655c0-17.655-3.531-31.779-3.531-49.434h17.655l-21.186-3.531c-21.186-7.062-38.841-14.124-60.028-21.186s-35.31-21.186-38.841-38.841c-7.062-17.655-3.531-35.31 10.593-52.966 10.593-17.655 24.717-35.31 38.841-56.497-10.593-14.124-21.186-28.248-31.779-45.903l-7.062-10.593c-14.124-24.717-14.124-42.372-10.593-52.966s14.124-28.248 38.841-38.841c21.186-7.062 42.372-17.655 60.028-21.186 0-10.593 0-21.186 0-31.779s0-21.186 0-31.779c0-28.248 14.124-42.372 21.186-49.434 10.593-7.062 28.248-14.124 56.497-7.062 7.062 3.531 14.124 3.531 21.186 7.062 14.124 3.531 28.248 7.062 42.372 10.593 10.593-10.593 17.655-21.186 28.248-31.779 3.531-7.062 10.593-14.124 14.124-21.186 17.655-21.186 35.31-24.717 45.903-24.717 0 0 0 0 0 0 10.593 0 28.248 3.531 45.903 24.717 7.062 7.062 10.593 14.124 17.655 21.186 7.062 10.593 17.655 21.186 28.248 31.779 14.124-3.531 28.248-7.062 42.372-10.593 7.062-3.531 14.124-3.531 21.186-7.062 24.717-7.062 42.372 0 52.966 7.062s21.186 21.186 24.717 45.903c3.531 24.717 3.531 45.903 3.531 70.621 21.186 7.062 42.372 17.655 63.559 24.717 24.717 10.593 31.779 24.717 35.31 35.31s3.531 28.248-7.062 49.434c-10.593 21.186-21.186 38.841-35.31 56.497zM1415.945 183.172c-21.186-7.062-42.372-17.655-63.559-24.717-14.124-7.062-24.717-17.655-24.717-35.31 0-21.186 0-45.903-3.531-67.090 0-3.531-3.531-14.124-7.062-17.655s-10.593-3.531-21.186 0c-7.062 3.531-14.124 3.531-21.186 7.062-14.124 3.531-28.248 7.062-42.372 10.593s-28.248-3.531-38.841-10.593c-10.593-10.593-17.655-21.186-28.248-31.779-3.531-7.062-10.593-14.124-14.124-17.655-7.062-7.062-10.593-10.593-17.655-10.593-3.531 0-10.593 3.531-17.655 10.593-3.531 7.062-10.593 14.124-14.124 17.655-10.593 10.593-17.655 24.717-28.248 35.31-7.062 7.062-17.655 14.124-31.779 14.124-3.531 0-3.531 0-7.062 0-14.124-3.531-28.248-7.062-42.372-10.593-7.062-3.531-14.124-3.531-21.186-7.062-10.593-3.531-17.655-3.531-21.186 0s-7.062 10.593-7.062 21.186c0 10.593 0 21.186 0 31.779s0 21.186 0 31.779c0 17.655-10.593 28.248-24.717 35.31-21.186 7.062-42.372 14.124-60.028 24.717-10.593 3.531-14.124 7.062-17.655 14.124 0 3.531 0 10.593 7.062 21.186l7.062 10.593c10.593 14.124 17.655 28.248 28.248 42.372s10.593 31.779 0 45.903c-14.124 17.655-24.717 35.31-35.31 52.966-3.531 7.062-7.062 14.124-7.062 21.186 0 3.531 7.062 10.593 17.655 14.124 17.655 7.062 38.841 14.124 56.497 21.186s28.248 21.186 28.248 38.841c0 14.124 0 31.779 3.531 45.903v17.655c0 10.593 0 17.655 24.717 17.655 0 0 0 0 0 0l10.593-3.531c14.124-3.531 28.248-7.062 45.903-14.124 7.062-3.531 35.31-10.593 52.966 17.655 7.062 10.593 17.655 21.186 28.248 35.31l7.062 10.593c7.062 7.062 10.593 10.593 17.655 10.593 0 0 0 0 0 0 3.531 0 10.593-3.531 17.655-10.593l7.062-7.062c10.593-14.124 21.186-28.248 31.779-42.372 10.593-17.655 28.248-21.186 49.434-14.124s38.841 10.593 63.559 17.655c7.062 3.531 14.124 0 17.655 0 3.531-3.531 7.062-10.593 7.062-14.124 3.531-24.717 3.531-45.903 3.531-70.621 0-10.593 3.531-24.717 24.717-31.779s42.372-14.124 63.559-24.717c10.593-3.531 17.655-7.062 17.655-14.124 0-3.531 0-10.593-7.062-21.186l-7.062-10.593c-7.062-14.124-17.655-28.248-28.248-38.841-14.124-17.655-14.124-35.31 0-52.966 10.593-17.655 21.186-31.779 31.779-49.434 3.531-7.062 7.062-14.124 3.531-17.655-3.531-17.655-10.593-21.186-14.124-24.717zM1182.897 303.228c-21.186 10.593-38.841 21.186-60.028 28.248-10.593 7.062-21.186 14.124-17.655 28.248s14.124 17.655 28.248 17.655c17.655 0 35.31-3.531 52.966-10.593 10.593-3.531 14.124 0 17.655 7.062 14.124 35.31 10.593 38.841-28.248 49.434-3.531 0-3.531 0-7.062 3.531-10.593 0-14.124 7.062-14.124 17.655 0 21.186 0 21.186-21.186 21.186-10.593 0-24.717 0-21.186-14.124 3.531-21.186-7.062-28.248-24.717-38.841-38.841-17.655-56.497-67.090-31.779-102.4 7.062-14.124 24.717-21.186 38.841-31.779 17.655-10.593 38.841-17.655 56.497-28.248 7.062-3.531 14.124-17.655 14.124-24.717s-14.124-21.186-21.186-21.186c-17.655-3.531-35.31 0-52.966 3.531-35.31 10.593-35.31 10.593-42.372-24.717-3.531-10.593 0-14.124 7.062-17.655 10.593-3.531 24.717-10.593 35.31-10.593 17.655-3.531 24.717-10.593 21.186-28.248 0-3.531 3.531-14.124 3.531-14.124 10.593 0 24.717-3.531 35.31 0 3.531 0 7.062 14.124 7.062 21.186 0 14.124 3.531 21.186 14.124 24.717 31.779 10.593 52.966 35.31 52.966 67.090 3.531 35.31-14.124 60.028-42.372 77.683z" />
<glyph unicode="&#xe904;" glyph-name="btn_drawer" d="M34.245 324.606c-10.050-5.956-14.889-17.867-11.167-29.034 22.706-73.701 61.79-139.958 112.785-195.42 7.817-8.561 20.473-10.422 30.523-4.467l87.846 50.623c36.851-31.639 79.657-56.206 125.441-72.585v-101.618c0-11.539 8.189-21.589 19.356-24.195 72.212-16.378 149.636-17.123 225.57 0 11.167 2.606 19.356 12.656 19.356 24.195v101.991c45.784 16.378 88.59 40.945 125.441 72.585l87.846-50.623c10.050-5.956 22.706-3.722 30.523 4.467 50.995 55.090 90.079 121.719 112.785 195.42 3.35 11.167-1.117 23.078-11.167 29.034l-87.846 50.623c8.933 48.017 8.933 97.152 0 144.797l87.846 50.623c10.050 5.956 14.889 17.867 11.167 29.034-22.706 73.701-61.79 139.958-112.785 195.42-7.817 8.561-20.473 10.422-30.523 4.467l-87.846-50.623c-36.851 31.639-79.657 56.206-125.441 72.585v101.618c0 11.539-8.189 21.589-19.356 24.195-72.212 16.378-149.636 17.123-225.57 0-11.167-2.606-19.356-12.656-19.356-24.195v-101.618c-45.784-16.378-88.59-40.945-125.441-72.585l-87.846 50.623c-10.050 5.956-22.706 4.095-30.523-4.467-50.995-55.462-90.079-121.719-112.785-195.42-3.35-11.167 1.117-23.078 11.167-29.034l87.846-50.623c-8.933-48.017-8.933-97.152 0-144.797l-87.846-50.995zM238.598 466.798l218.126 218.498c16.75 16.378 45.040 4.839 45.040-18.611v-147.775h255.721c14.517 0 26.428-11.911 26.428-26.428v-88.218c0-14.517-11.911-26.428-26.428-26.428h-255.721v-147.775c0-23.45-28.289-35.362-45.040-18.611l-218.126 218.498c-10.422 9.678-10.422 26.428 0 36.851z" />
<glyph unicode="&#xe905;" glyph-name="caddie" horiz-adv-x="1046" d="M745.576-32.696c-20.468 0-39.732 7.826-52.976 21.672-27.993 29.197-31.003 65.919-8.127 98.126 1.505 1.806 2.408 3.913 3.612 6.020l3.612 6.622-5.719 4.515c-10.836 1.806-97.825 2.107-134.848 2.107-2.107 0-209.496 0-218.827-3.913l-6.321-2.709 7.525-10.836c13.244-19.264 18.060-34.615 16.555-49.966-3.913-41.538-35.819-71.939-75.852-71.939-9.030 0-18.060 1.505-27.090 4.816-18.361 6.321-34.314 21.672-43.043 41.237-8.127 18.060-9.030 37.324-2.408 53.879 6.020 14.749 13.545 29.799 28.896 37.926 12.642 6.622 11.739 16.856 9.933 24.080-2.408 9.632-4.515 18.060-5.117 26.488-0.602 9.331 1.806 17.458 6.923 22.876 5.117 5.719 13.244 8.729 23.177 9.030l429.225-0.301c2.709 0 4.816 0.301 6.923 0.903 3.612 0.903 10.535 4.515 12.040 10.234 2.408 9.030 3.913 18.060 5.719 27.993 0 0 7.224 13.244 20.769 74.046 6.923 31.003 8.428 92.407-33.411 128.226-86.688 73.745-128.527 135.149 68.026 149.597 15.050 1.204 14.448 4.515 15.953 13.846 1.806 10.535 13.545 46.053 15.652 56.588l3.311 16.555c4.515 22.876 13.846 30.702 36.722 30.702h136.654c2.107 0 4.515 0 6.622-0.301 17.759-1.505 27.692-12.040 27.993-30.1 0-6.923 0-13.545 0-20.468-0.301-19.565-10.836-30.401-30.401-31.003-5.117-0.301-26.187-0.301-26.187-0.301h-63.511c-12.642 0-16.254-7.525-17.157-13.846-0.301-1.505-49.063-240.8-49.063-240.8-15.953-78.561-32.207-157.423-48.461-235.984-1.806-8.729 0.602-15.050 8.127-20.468 19.866-14.448 31.304-37.926 30.702-62.909-0.903-25.284-14.448-47.859-37.023-62.006-11.438-6.321-25.284-10.234-39.13-10.234z" />
<glyph unicode="&#xe906;" glyph-name="docs_guideline" horiz-adv-x="866" d="M208.738-52.185c-19.692 0-39.385 0-59.077 0h-15.754c-63.015 3.938-110.277 55.138-110.277 122.092 0 236.308 0 512 0 748.308 0 59.077 35.446 106.338 94.523 118.154 7.877 7.877 23.631 11.815 39.385 11.815 0 0 586.831 0 626.215 0s63.015-31.508 63.015-74.831c0-23.631 0-43.323 0-66.954 0-43.323 0-51.2 0-94.523 0-51.2 0-106.338 0-157.538s0-102.4 0-149.662c0-35.446 0-149.662 0-185.108 0-11.815 3.938-23.631 0-35.446-3.938-15.754-19.692-19.692-31.508-27.569-11.815-11.815-19.692-19.692-23.631-35.446-7.877-35.446-3.938-94.523 31.508-102.4 3.938 0 7.877-3.938 11.815-3.938s7.877-3.938 11.815-7.877c0-3.938 0-3.938 0-7.877 0-7.877 0-15.754 0-23.631s0-11.815-7.877-19.692c-3.938-3.938-11.815-3.938-19.692-3.938-15.754 0-27.569 0-43.323 0-19.692 0-39.385 0-59.077 0-23.631 0-43.323 0-66.954 0-19.692 0-43.323 0-63.015 0-15.754 0-35.446 0-51.2 0-7.877 0-19.692 0-27.569 0 0 0 0 0-3.938 0l-295.385-3.938zM149.662 152.615c-27.569 0-47.262-7.877-63.015-23.631s-23.631-35.446-23.631-55.138c0-47.262 35.446-78.769 86.646-78.769h626.215c0 0-35.446 23.631-35.446 90.585 0 39.385 15.754 70.892 15.754 70.892h-472.615l-133.908-3.938zM145.723 904.862c-51.2 0-82.708-31.508-86.646-86.646v-653.785c0 0 7.877 7.877 35.446 19.692 35.446 15.754 78.769 11.815 153.6 11.815 11.815 0 512 0 512 0 31.508 0 39.385 7.877 39.385 39.385v630.154c0 31.508-7.877 39.385-39.385 39.385h-614.4zM366.277 534.646v189.046h59.077v-165.415c7.877 3.938 15.754 3.938 23.631 7.877 11.815 3.938 23.631 7.877 31.508 11.815v145.723h59.077v-122.092c39.385 23.631 55.138 55.138 55.138 122.092h39.385c0-94.523-31.508-137.846-90.585-165.415v-192.985h-59.077v169.354c-7.877-3.938-11.815-3.938-19.692-7.877-11.815-3.938-23.631-7.877-35.446-11.815v-149.662h-63.015v122.092c-35.446-23.631-51.2-55.138-51.2-122.092h-39.385c0 98.462 35.446 141.785 90.585 169.354z" />
<glyph unicode="&#xe907;" glyph-name="docs_masterline" horiz-adv-x="866" d="M208.738-52.185c-19.692 0-39.385 0-59.077 0h-15.754c-63.015 3.938-110.277 55.138-110.277 122.092 0 236.308 0 512 0 748.308 0 59.077 35.446 106.338 94.523 118.154 7.877 7.877 23.631 11.815 39.385 11.815 0 0 586.831 0 626.215 0s63.015-31.508 63.015-74.831c0-23.631 0-43.323 0-66.954 0-43.323 0-51.2 0-94.523 0-51.2 0-106.338 0-157.538s0-102.4 0-149.662c0-35.446 0-149.662 0-185.108 0-11.815 3.938-23.631 0-35.446-3.938-15.754-19.692-19.692-31.508-27.569-11.815-11.815-19.692-19.692-23.631-35.446-7.877-35.446-3.938-94.523 31.508-102.4 3.938 0 7.877-3.938 11.815-3.938s7.877-3.938 11.815-7.877c0-3.938 0-3.938 0-7.877 0-7.877 0-15.754 0-23.631s0-11.815-7.877-19.692c-3.938-3.938-11.815-3.938-19.692-3.938-15.754 0-27.569 0-43.323 0-19.692 0-39.385 0-59.077 0-23.631 0-43.323 0-66.954 0-19.692 0-43.323 0-63.015 0-15.754 0-35.446 0-51.2 0-7.877 0-19.692 0-27.569 0 0 0 0 0-3.938 0l-295.385-3.938zM149.662 152.615c-27.569 0-47.262-7.877-63.015-23.631s-23.631-35.446-23.631-55.138c0-47.262 35.446-78.769 86.646-78.769h626.215c0 0-35.446 23.631-35.446 90.585 0 39.385 15.754 70.892 15.754 70.892h-472.615l-133.908-3.938zM145.723 904.862c-51.2 0-82.708-31.508-86.646-86.646v-653.785c0 0 7.877 7.877 35.446 19.692 35.446 15.754 78.769 11.815 153.6 11.815 11.815 0 512 0 512 0 31.508 0 39.385 7.877 39.385 39.385v630.154c0 31.508-7.877 39.385-39.385 39.385h-614.4zM366.277 707.938l78.769-271.754 78.769 271.754h59.077v-330.831h-47.262v126.031l3.938 126.031-78.769-256h-31.508l-78.769 256 3.938-126.031v-126.031h-47.262v330.831h59.077z" />
<glyph unicode="&#xe908;" d="M980.993 447.785c0-259.136-210.072-469.208-469.208-469.208s-469.208 210.072-469.208 469.208c0 259.136 210.072 469.208 469.208 469.208s469.208-210.072 469.208-469.208z" />
<glyph unicode="&#xe909;" d="M511.785 960c-282.127 0-511.785-229.658-511.785-511.785s229.658-511.785 511.785-511.785 511.785 229.658 511.785 511.785-229.228 511.785-511.785 511.785zM511.785 22.014c-234.819 0-425.771 190.952-425.771 425.771s191.382 426.201 425.771 426.201 425.771-190.952 425.771-425.771-190.952-426.201-425.771-426.201z" />
<glyph unicode="&#xe90a;" d="M418.459 437.033c4.731-3.871 10.322-5.591 15.913-5.591 7.741 0 15.052 3.441 20.213 9.892 9.031 11.182 6.881 27.525-4.301 36.126l-77.413 61.070h330.725c14.192 0 25.804 11.612 25.804 25.804s-11.612 25.804-25.804 25.804h-330.725l77.413 61.070c11.182 9.031 12.902 24.944 4.301 36.126-9.031 11.182-24.944 12.902-36.126 4.301l-135.472-107.088c-1.29-0.86-2.15-1.72-3.010-3.010-0.43-0.43-0.86-0.43-1.29-0.86 0-0.43-0.43-0.43-0.43-0.86-1.72-2.58-3.441-5.161-4.301-8.171 0-0.43 0-0.86 0-1.29-0.43-2.58-0.86-5.161-0.43-7.741 0-0.86 0.43-2.15 0.43-3.010 0.43-1.29 0.43-2.58 0.43-3.441 0.43-0.86 0.86-1.72 1.29-2.58s0.86-1.72 1.29-3.010c1.72-1.72 3.010-3.441 4.731-5.161 0.43-0.43 0.43-0.86 1.29-1.29l135.472-107.088z" />
<glyph unicode="&#xe90b;" d="M750.045 325.645c0.43 2.58 0.86 5.161 0.43 7.741 0 0.86-0.43 2.15-0.43 3.010-0.43 1.29-0.43 2.58-0.43 3.441-0.43 0.86-0.86 1.29-1.29 2.15s-0.86 1.72-1.72 3.010-2.58 3.871-4.731 5.161c-0.43 0.43-0.86 0.86-1.29 1.29l-135.472 107.088c-11.182 9.031-27.525 6.881-36.126-4.301-9.031-11.182-6.881-27.525 4.301-36.126l77.413-61.070h-330.295c-14.192 0-25.804-11.612-25.804-25.804s11.612-25.804 25.804-25.804h330.725l-77.413-61.070c-11.182-9.031-12.902-24.944-4.301-36.126 5.161-6.451 12.472-9.892 20.213-9.892 5.591 0 11.182 1.72 15.913 5.591l135.472 107.088c1.29 0.86 2.15 2.15 3.010 3.441 0.43 0.43 0.86 0.43 1.29 0.86 0 0.43 0.43 0.43 0.43 0.86 1.72 2.58 3.441 5.161 4.301 8.171 0 0.43 0 0.86 0 1.29z" />
<glyph unicode="&#xe90c;" glyph-name="drag-strip" horiz-adv-x="460" d="M170.786 874.248c0-47.161-38.232-85.393-85.393-85.393s-85.393 38.232-85.393 85.393c0 47.161 38.232 85.393 85.393 85.393s85.393-38.232 85.393-85.393zM459.975 874.248c0-47.161-38.232-85.393-85.393-85.393s-85.393 38.232-85.393 85.393c0 47.161 38.232 85.393 85.393 85.393s85.393-38.232 85.393-85.393zM170.786 590.083c0-47.161-38.232-85.393-85.393-85.393s-85.393 38.232-85.393 85.393c0 47.161 38.232 85.393 85.393 85.393s85.393-38.232 85.393-85.393zM459.975 590.083c0-47.161-38.232-85.393-85.393-85.393s-85.393 38.232-85.393 85.393c0 47.161 38.232 85.393 85.393 85.393s85.393-38.232 85.393-85.393zM170.786 305.917c0-47.161-38.232-85.393-85.393-85.393s-85.393 38.232-85.393 85.393c0 47.161 38.232 85.393 85.393 85.393s85.393-38.232 85.393-85.393zM459.975 305.917c0-47.161-38.232-85.393-85.393-85.393s-85.393 38.232-85.393 85.393c0 47.161 38.232 85.393 85.393 85.393s85.393-38.232 85.393-85.393zM170.786 21.752c0-47.161-38.232-85.393-85.393-85.393s-85.393 38.232-85.393 85.393c0 47.161 38.232 85.393 85.393 85.393s85.393-38.232 85.393-85.393zM459.975 21.752c0-47.161-38.232-85.393-85.393-85.393s-85.393 38.232-85.393 85.393c0 47.161 38.232 85.393 85.393 85.393s85.393-38.232 85.393-85.393z" />
<glyph unicode="&#xe90d;" glyph-name="edit_tags" horiz-adv-x="2588" d="M881.778 570.311h-113.778v-378.311h-34.133v378.311h-113.778v28.444h261.689v-28.444zM1055.289 192c-2.844 11.378-2.844 19.911-2.844 25.6s0 14.222 0 19.911c-8.533-14.222-19.911-28.444-34.133-36.978s-31.289-14.222-48.356-14.222c-25.6 0-45.511 8.533-56.889 22.756-14.222 14.222-19.911 36.978-19.911 62.578 0 28.444 8.533 51.2 28.444 68.267s45.511 25.6 79.644 25.6h54.044v36.978c0 22.756-5.689 36.978-17.067 51.2-11.378 11.378-25.6 17.067-45.511 17.067-17.067 0-34.133-5.689-45.511-17.067s-17.067-25.6-17.067-42.667h-31.289v2.844c0 22.756 8.533 42.667 25.6 59.733s42.667 25.6 68.267 25.6c28.444 0 51.2-8.533 68.267-25.6s25.6-42.667 25.6-73.956v-147.911c0-11.378 0-19.911 0-31.289s2.844-19.911 5.689-28.444h-36.978zM969.956 217.6c19.911 0 34.133 5.689 48.356 17.067s25.6 25.6 31.289 39.822v65.422h-54.044c-22.756 0-39.822-5.689-54.044-19.911s-19.911-28.444-19.911-48.356c0-17.067 5.689-28.444 14.222-39.822s19.911-14.222 34.133-14.222zM1149.156 359.822c0 42.667 8.533 76.8 25.6 102.4s39.822 39.822 71.111 39.822c17.067 0 31.289-2.844 45.511-11.378s22.756-19.911 31.289-34.133l2.844 42.667h28.444v-307.2c0-39.822-8.533-68.267-28.444-91.022-17.067-19.911-42.667-31.289-76.8-31.289-11.378 0-25.6 2.844-36.978 5.689s-25.6 8.533-36.978 14.222l8.533 28.444c8.533-5.689 19.911-11.378 31.289-14.222s22.756-5.689 34.133-5.689c22.756 0 42.667 8.533 54.044 22.756s17.067 36.978 17.067 68.267v36.978c-8.533-14.222-19.911-22.756-31.289-31.289s-25.6-11.378-42.667-11.378c-31.289 0-54.044 11.378-71.111 34.133s-25.6 54.044-25.6 93.867v48.356zM1183.289 317.156c0-31.289 5.689-54.044 17.067-73.956s28.444-28.444 54.044-28.444c17.067 0 28.444 5.689 39.822 14.222s19.911 19.911 25.6 36.978v150.756c-5.689 17.067-14.222 28.444-25.6 39.822-11.378 8.533-25.6 14.222-39.822 14.222-22.756 0-42.667-11.378-54.044-31.289s-17.067-48.356-17.067-79.644v-42.667zM1575.822 265.956c0 14.222-5.689 25.6-14.222 36.978s-25.6 19.911-48.356 31.289c-31.289 11.378-54.044 25.6-68.267 39.822s-19.911 31.289-19.911 51.2c0 22.756 8.533 39.822 25.6 54.044s39.822 22.756 65.422 22.756c28.444 0 51.2-8.533 68.267-25.6s25.6-36.978 22.756-62.578v-2.844h-31.289c0 17.067-5.689 31.289-17.067 42.667s-25.6 17.067-42.667 17.067c-19.911 0-34.133-5.689-42.667-14.222s-14.222-19.911-14.222-34.133c0-14.222 2.844-22.756 11.378-31.289s25.6-17.067 51.2-31.289c31.289-11.378 51.2-25.6 68.267-39.822 14.222-14.222 22.756-31.289 22.756-54.044s-8.533-42.667-25.6-56.889c-17.067-14.222-39.822-22.756-68.267-22.756-31.289 0-54.044 8.533-73.956 25.6-17.067 17.067-25.6 36.978-25.6 62.578v2.844h31.289c0-22.756 8.533-36.978 19.911-48.356 14.222-8.533 28.444-14.222 45.511-14.222 19.911 0 34.133 5.689 45.511 14.222 8.533 11.378 14.222 22.756 14.222 36.978zM426.667 459.378c48.356 0 91.022-39.822 91.022-91.022s-39.822-91.022-91.022-91.022-91.022 39.822-91.022 91.022 42.667 91.022 91.022 91.022zM426.667 496.356c-71.111 0-128-56.889-128-128s56.889-128 128-128 128 56.889 128 128-56.889 128-128 128v0zM42.667 368.356v0 0 0zM2144.711 914.489c2.844 0 2.844 0 5.689 0 17.067-2.844 28.444-11.378 34.133-28.444 22.756-68.267 45.511-139.378 68.267-207.644 5.689-14.222 14.222-19.911 28.444-19.911h216.178c19.911 0 36.978-8.533 42.667-25.6 8.533-19.911 2.844-39.822-14.222-51.2-59.733-42.667-116.622-85.333-176.356-128-8.533-5.689-17.067-17.067-11.378-36.978 22.756-68.267 45.511-136.533 65.422-201.956 2.844-5.689 2.844-11.378 2.844-17.067 0-17.067-8.533-31.289-22.756-39.822-8.533-2.844-14.222-5.689-19.911-5.689-8.533 0-17.067 2.844-25.6 8.533-59.733 42.667-119.467 85.333-176.356 128-2.844 2.844-11.378 5.689-19.911 5.689v-28.444c0-147.911-122.311-270.222-270.222-270.222h-45.511c-99.556 0-625.778 0-952.889 0-119.467 0-213.333 0-250.311 0-34.133 0-56.889 0-76.8 0-59.733 0-82.489 0-182.044 0-39.822 0-73.956 17.067-102.4 51.2s-54.044 68.267-82.489 102.4c-39.822 51.2-79.644 99.556-119.467 150.756-8.533 11.378-25.6 36.978-22.756 68.267-2.844 31.289 14.222 56.889 22.756 68.267 39.822 51.2 79.644 99.556 119.467 150.756 25.6 34.133 54.044 68.267 82.489 102.4s62.578 51.2 102.4 51.2c99.556 0 119.467 0 182.044 0 19.911 0 45.511 0 76.8 0 36.978 0 130.844 0 253.156 0 327.111 0 853.333 0 952.889 0h45.511c62.578 0 119.467-22.756 164.978-56.889 17.067 56.889 36.978 113.778 56.889 170.667l8.533 28.444c5.689 19.911 19.911 31.289 39.822 31.289zM2144.711 951.467c-36.978 0-65.422-22.756-76.8-56.889l-8.533-25.6c-14.222-42.667-28.444-82.489-39.822-125.156-45.511 22.756-93.867 36.978-145.067 36.978h-45.511c-93.867 0-571.733 0-952.889 0h-329.956c-59.733 0-82.489 0-182.044 0-51.2 0-96.711-22.756-130.844-65.422-28.444-34.133-54.044-68.267-82.489-105.244-42.667-54.044-79.644-102.4-119.467-150.756-11.378-17.067-34.133-48.356-31.289-91.022-2.844-42.667 19.911-76.8 31.289-91.022 39.822-48.356 76.8-96.711 119.467-150.756 25.6-34.133 54.044-68.267 82.489-105.244 34.133-42.667 79.644-65.422 130.844-65.422 99.556 0 119.467 0 182.044 0h327.111c381.156 0 859.022 0 952.889 0h45.511c156.444 0 287.289 119.467 304.356 270.222 45.511-34.133 91.022-68.267 136.533-99.556 14.222-11.378 31.289-17.067 45.511-17.067s25.6 2.844 39.822 11.378c28.444 14.222 42.667 39.822 42.667 71.111 0 8.533-2.844 19.911-5.689 28.444-22.756 68.267-42.667 133.689-65.422 199.111 56.889 42.667 116.622 82.489 173.511 125.156 31.289 22.756 42.667 62.578 28.444 96.711-11.378 31.289-42.667 51.2-76.8 51.2h-210.489c-22.756 68.267-42.667 136.533-65.422 201.956-11.378 31.289-34.133 51.2-68.267 54.044 2.844 2.844-2.844 2.844-5.689 2.844v0zM2039.467 558.933c14.222 14.222 28.444 28.444 42.667 42.667 8.533 8.533 25.6 14.222 39.822 8.533 28.444-11.378 51.2-42.667 73.956-65.422 19.911-22.756 19.911-45.511 0-68.267-11.378-11.378-22.756-22.756-34.133-34.133-8.533-8.533-17.067-11.378-28.444 0-31.289 31.289-62.578 62.578-91.022 91.022-8.533 8.533-11.378 17.067-2.844 25.6zM1729.422 246.044c0 5.689 5.689 11.378 8.533 17.067 76.8 76.8 153.6 153.6 230.4 233.244 11.378 11.378 19.911 11.378 31.289 0 28.444-31.289 59.733-59.733 91.022-91.022 8.533-8.533 8.533-17.067 0-28.444-79.644-79.644-156.444-156.444-236.089-236.089-2.844-2.844-8.533-5.689-14.222-5.689-28.444-2.844-59.733-8.533-85.333-8.533-31.289 0-39.822 5.689-36.978 34.133 5.689 25.6 8.533 54.044 11.378 85.333z" />
<glyph unicode="&#xe90e;" glyph-name="edit_user" horiz-adv-x="1817" d="M469.058 570.219c0-105.703 85.884-194.89 194.89-194.89s194.89 85.884 194.89 194.89-85.884 194.89-194.89 194.89-194.89-89.187-194.89-194.89zM815.897 570.219c0-82.581-66.065-151.948-151.948-151.948-82.581 0-151.948 66.065-151.948 151.948 0 82.581 66.065 151.948 151.948 151.948 82.581 0 151.948-69.368 151.948-151.948zM1463.329 180.439c-13.213 0-23.123-9.91-23.123-23.123v-79.277c0-49.548-39.639-85.884-85.884-85.884h-366.658c0 56.155 0 92.49 0 145.342v19.819c0 99.097-92.49 178.374-204.8 178.374-16.516 0-26.426-3.303-39.639-9.91-16.516-6.606-39.639-13.213-79.277-13.213s-62.761 6.606-79.277 13.213c-13.213 3.303-26.426 9.91-42.942 9.91-112.31 0-204.8-79.277-204.8-178.374v-29.729c0-46.245 0-82.581 0-135.432h-198.194c-49.548 0-85.884 39.639-85.884 85.884v736.619c0 49.548 39.639 85.884 85.884 85.884h1215.587c49.548 0 85.884-39.639 85.884-85.884v-109.006c0-13.213 9.91-23.123 23.123-23.123s23.123 9.91 23.123 23.123v109.006c0 72.671-59.458 132.129-132.129 132.129h-1215.587c-72.671 0-132.129-59.458-132.129-132.129v-736.619c0-72.671 59.458-132.129 132.129-132.129h1215.587c72.671 0 132.129 59.458 132.129 132.129v79.277c-3.303 13.213-13.213 23.123-23.123 23.123zM383.174 127.587v29.729c0 72.671 72.671 132.129 158.555 132.129 9.91 0 16.516-3.303 26.426-6.606 19.819-6.606 46.245-16.516 92.49-16.516s72.671 9.91 92.49 16.516c9.91 3.303 19.819 6.606 26.426 6.606 89.187 0 158.555-59.458 158.555-132.129v-19.819c0-52.852 0-89.187 0-145.342h-551.639c-3.303 52.852-3.303 85.884-3.303 135.432zM1793.652 712.258c-16.516 16.516-33.032 33.032-49.548 49.548-23.123 19.819-46.245 39.639-75.974 19.819-23.123-13.213-39.639-36.335-56.155-56.155-9.91-9.91-6.606-19.819 0-26.426 39.639-36.335 72.671-72.671 109.006-109.006 9.91-9.91 23.123-9.91 33.032 0 13.213 13.213 26.426 26.426 39.639 39.639 23.123 29.729 23.123 56.155 0 82.581zM1569.032 649.497c-13.213 13.213-23.123 13.213-36.335 0-89.187-89.187-178.374-178.374-267.561-270.865-3.303-3.303-9.91-13.213-9.91-19.819-3.303-33.032-9.91-69.368-9.91-102.4-3.303-29.729 6.606-39.639 42.942-39.639 29.729 3.303 62.761 6.606 99.097 9.91 6.606 0 13.213 3.303 16.516 6.606 92.49 89.187 181.677 181.677 274.168 274.168 9.91 9.91 9.91 19.819 0 33.032-39.639 39.639-75.974 72.671-109.006 109.006z" />
<glyph unicode="&#xe90f;" glyph-name="edit_users" horiz-adv-x="1817" d="M1347.716-50.787h-1212.284c-72.671 0-132.129 59.458-132.129 132.129v733.316c0 72.671 59.458 132.129 132.129 132.129h1212.284c72.671 0 132.129-59.458 132.129-132.129v-109.006c0-13.213-9.91-23.123-23.123-23.123s-23.123 9.91-23.123 23.123v109.006c0 49.548-39.639 85.884-85.884 85.884h-1212.284c-49.548 0-85.884-39.639-85.884-85.884v-736.619c0-49.548 39.639-85.884 85.884-85.884h1212.284c49.548 0 85.884 39.639 85.884 85.884v79.277c0 13.213 9.91 23.123 23.123 23.123s23.123-9.91 23.123-23.123v-79.277c0-72.671-59.458-128.826-132.129-128.826zM1608.671 725.471c16.516 16.516 33.032 33.032 49.548 49.548 49.548 39.639 99.097-33.032 128.826-62.761 23.123-26.426 23.123-52.852 0-79.277-13.213-13.213-26.426-26.426-39.639-39.639-9.91-9.91-19.819-13.213-33.032 0-36.335 36.335-72.671 72.671-105.703 105.703-6.606 6.606-9.91 16.516 0 26.426zM1248.619 358.813c0 6.606 6.606 13.213 9.91 19.819 89.187 89.187 178.374 178.374 267.561 270.865 13.213 13.213 23.123 13.213 36.335 0 33.032-36.335 69.368-69.368 105.703-105.703 9.91-9.91 9.91-19.819 0-33.032-92.49-92.49-181.677-181.677-274.168-274.168-3.303-3.303-9.91-6.606-16.516-6.606-33.032-3.303-69.368-9.91-99.097-9.91-36.335 0-46.245 6.606-42.942 39.639 6.606 33.032 9.91 66.065 13.213 99.097zM475.665 481.032c82.581 0 145.342 66.065 145.342 145.342 0 39.639-16.516 75.974-42.942 102.4s-66.065 42.942-102.4 42.942v0 0c-79.277 0-145.342-66.065-145.342-145.342 0-39.639 16.516-75.974 42.942-102.4 26.426-29.729 62.761-42.942 102.4-42.942zM472.361 728.774v0 0c29.729 0 56.155-9.91 75.974-29.729s29.729-46.245 29.729-72.671c0-56.155-46.245-102.4-105.703-102.4-26.426 0-52.852 9.91-72.671 29.729s-29.729 46.245-29.729 72.671c0 56.155 46.245 102.4 102.4 102.4zM948.026 728.774c-26.426 26.426-66.065 42.942-102.4 42.942v0 0c-79.277 0-145.342-66.065-145.342-145.342 0-39.639 16.516-75.974 42.942-102.4s66.065-42.942 102.4-42.942c82.581 0 145.342 66.065 145.342 145.342 0 39.639-13.213 75.974-42.942 102.4zM845.626 520.671c-26.426 0-52.852 9.91-72.671 29.729s-29.729 46.245-29.729 72.671c0 56.155 46.245 105.703 105.703 105.703v0c56.155 0 102.4-46.245 102.4-105.703 0-52.852-46.245-102.4-105.703-102.4zM1119.794 276.232c-29.729 49.548-69.368 92.49-122.219 118.916-26.426 13.213-52.852 23.123-82.581 29.729-42.942 9.91-75.974 13.213-122.219 6.606-46.245-9.91-85.884-26.426-125.523-49.548l-9.91-6.606c0 0-9.91 6.606-9.91 6.606-66.065 46.245-142.039 62.761-221.316 49.548s-145.342-49.548-194.89-109.006c-42.942-56.155-69.368-115.613-72.671-188.284h39.639c13.213 158.555 148.645 254.348 274.168 254.348 46.245 0 92.49-13.213 132.129-36.335l19.819-9.91-13.213-16.516c-49.548-56.155-72.671-118.916-79.277-191.587h42.942c13.213 155.252 145.342 254.348 267.561 254.348 62.761 0 115.613-16.516 165.161-49.548 69.368-49.548 109.006-118.916 115.613-208.103h42.942c-6.606 52.852-19.819 99.097-46.245 145.342z" />
<glyph unicode="&#xe910;" glyph-name="edit_video" horiz-adv-x="1883" d="M1582.245 183.742c-13.213 0-23.123-9.91-23.123-23.123v-79.277c0-49.548-39.639-85.884-85.884-85.884h-260.955v429.419h79.277c13.213 0 23.123 9.91 23.123 23.123s-9.91 23.123-23.123 23.123h-79.277v204.8h290.684c13.213 0 23.123 9.91 23.123 23.123s-9.91 23.123-23.123 23.123h-290.684v184.981h260.955c49.548 0 85.884-39.639 85.884-85.884v-56.155c0-13.213 9.91-23.123 23.123-23.123s23.123 9.91 23.123 23.123v52.852c0 72.671-59.458 132.129-132.129 132.129h-1331.2c-72.671 0-132.129-59.458-132.129-132.129v-736.619c0-72.671 59.458-132.129 132.129-132.129h1334.503c72.671 0 132.129 59.458 132.129 132.129v79.277c-3.303 13.213-13.213 23.123-26.426 23.123zM1169.342-4.542h-749.832v911.69h753.135v-911.69zM373.265 467.819h-320.413v208.103h320.413v-208.103zM373.265 424.877v-208.103h-320.413v208.103h320.413zM142.039 907.148h234.529v-184.981h-323.716v99.097c0 46.245 39.639 85.884 89.187 85.884zM52.852 84.645v89.187h320.413v-175.071h-231.226c-49.548-3.303-89.187 36.335-89.187 85.884zM1843.2 656.103c-13.213 16.516-29.729 33.032-46.245 46.245-13.213 13.213-29.729 29.729-49.548 33.032-33.032 3.303-66.065-42.942-85.884-62.761-9.91-9.91-6.606-19.819 0-26.426 36.335-36.335 72.671-72.671 105.703-105.703 9.91-9.91 23.123-9.91 33.032 0 13.213 13.213 26.426 26.426 39.639 39.639 29.729 23.123 29.729 52.852 3.303 75.974zM1618.581 596.645c-13.213 13.213-23.123 13.213-36.335 0-89.187-89.187-178.374-178.374-267.561-270.865-3.303-3.303-9.91-13.213-9.91-19.819-3.303-33.032-9.91-69.368-9.91-102.4-3.303-29.729 6.606-39.639 42.942-39.639 29.729 3.303 62.761 6.606 99.097 9.91 6.606 0 13.213 3.303 16.516 6.606 92.49 89.187 181.677 181.677 274.168 274.168 9.91 9.91 9.91 19.819 0 33.032-39.639 39.639-72.671 72.671-109.006 109.006zM657.342 282.839c0-39.639 33.032-59.458 66.065-39.639 89.187 52.852 178.374 105.703 264.258 158.555 33.032 19.819 33.032 59.458 0 75.974-89.187 52.852-178.374 105.703-267.561 158.555-33.032 19.819-62.761 0-62.761-39.639 0-52.852 0-105.703 0-158.555-3.303-46.245-3.303-99.097 0-155.252z" />
<glyph unicode="&#xe911;" glyph-name="edit_visual" horiz-adv-x="1883" d="M1417.084-50.787h-1278.348c-72.671 0-132.129 59.458-132.129 132.129v733.316c0 72.671 59.458 132.129 132.129 132.129h1278.348c72.671 0 132.129-59.458 132.129-132.129v-109.006c0-13.213-9.91-23.123-23.123-23.123s-23.123 13.213-23.123 26.426v105.703c0 49.548-39.639 85.884-85.884 85.884h-1278.348c-49.548 0-85.884-39.639-85.884-85.884v-736.619c0-49.548 39.639-85.884 85.884-85.884h1278.348c49.548 0 85.884 39.639 85.884 85.884v79.277c0 13.213 9.91 23.123 23.123 23.123s23.123-9.91 23.123-23.123v-79.277c0-69.368-59.458-128.826-132.129-128.826zM630.916 616.465c0-69.324-56.198-125.523-125.523-125.523s-125.523 56.198-125.523 125.523c0 69.324 56.198 125.523 125.523 125.523s125.523-56.198 125.523-125.523zM221.316 154.013h964.542l-290.684 416.206c-9.91 9.91-26.426 9.91-39.639 0l-307.2-307.2-125.523 125.523c-9.91 9.91-26.426 9.91-39.639 0l-161.858-161.858v-72.671zM1678.039 725.471c16.516 19.819 33.032 39.639 56.155 52.852 29.729 16.516 49.548 0 72.671-19.819 16.516-16.516 33.032-33.032 49.548-49.548 23.123-26.426 23.123-52.852 0-79.277-13.213-13.213-26.426-26.426-39.639-39.639-9.91-9.91-19.819-13.213-33.032 0-33.032 36.335-69.368 72.671-105.703 109.006-6.606 9.91-9.91 19.819 0 26.426zM1317.987 362.116c0 6.606 6.606 13.213 9.91 19.819 89.187 89.187 178.374 178.374 267.561 270.865 13.213 13.213 23.123 13.213 36.335 0 33.032-36.335 69.368-69.368 105.703-105.703 9.91-9.91 9.91-19.819 0-33.032-92.49-92.49-181.677-181.677-274.168-274.168-3.303-3.303-9.91-6.606-16.516-6.606-33.032-3.303-69.368-9.91-99.097-9.91-36.335 0-46.245 6.606-42.942 39.639 6.606 29.729 9.91 66.065 13.213 99.097z" />
<glyph unicode="&#xe912;" glyph-name="eraser-solid" d="M995.882 412.118c37.49 37.49 37.49 98.274 0 135.764l-320 320c-37.49 37.49-98.272 37.492-135.766 0l-512-512c-37.49-37.49-37.49-98.274 0-135.764l192-192c17.373-17.372 41.374-28.118 67.884-28.118h712c13.254 0 24 10.746 24 24v80c0 13.254-10.746 24-24 24h-288.234l284.116 284.118zM390.628 537.372l274.746-274.746-134.628-134.626h-229.49l-160 160 249.372 249.372z" />
<glyph unicode="&#xe913;" glyph-name="featuredfull" horiz-adv-x="3696" d="M451.386 921.41c20.27 0 35.082-11.304 41.708-32.353l8.186-24.947c19.1-58.86 38.2-117.719 57.3-176.579 47.166 36.641 106.025 58.47 169.952 58.47h2650.628c152.801 0 277.926-125.125 277.926-277.926v-215.558c0-152.801-125.125-277.926-277.926-277.926h-2650.628c-152.801 0-277.926 125.125-277.926 277.926v30.014c-8.576 0-14.812-3.898-19.1-7.016-60.809-44.437-121.227-88.484-182.036-132.531-8.186-5.847-16.761-8.965-24.947-8.965-7.016 0-14.423 1.949-21.829 5.847-15.202 8.186-22.998 21.049-22.608 39.759 0 5.067 1.949 11.304 3.508 16.372 22.608 69.774 45.217 139.158 68.215 208.932 6.627 19.88-3.118 31.574-12.084 38.2-60.419 43.268-120.448 87.315-180.477 130.972-18.321 13.253-24.557 33.912-16.761 53.402 7.016 17.541 22.998 27.286 44.437 27.286h222.185c14.812 0 25.337 7.796 30.014 21.829 22.998 71.333 45.996 142.666 69.384 213.999 6.237 18.321 17.931 28.455 36.641 30.404 1.949 0 4.288 0.39 6.237 0.39zM451.386 960.39c-3.898 0-7.406-0.39-11.304-0.78-33.133-3.508-57.69-24.167-68.604-56.911-22.998-69.774-45.606-139.158-67.825-208.932h-217.118c-37.421 0-67.435-19.49-80.298-51.843-14.423-35.861-3.118-75.621 28.845-99.009 59.249-42.878 118.499-86.145 177.748-128.633-22.608-68.994-44.827-137.209-67.045-205.813-2.729-8.576-5.067-17.931-5.067-28.455 0-32.353 15.202-58.86 43.268-74.062 13.253-7.016 26.896-10.525 40.149-10.525 16.372 0 33.133 5.457 47.945 16.372 47.555 34.302 94.721 68.604 141.887 102.907 18.71-156.699 152.801-278.706 314.567-278.706h2650.628c174.63 0 316.906 142.276 316.906 316.906v215.558c0 174.63-142.276 316.906-316.906 316.906h-2650.628c-52.233 0-102.907-12.863-148.123-37.421-13.643 42.878-27.676 85.366-41.708 128.244l-8.576 24.947c-12.084 37.031-41.319 59.249-78.739 59.249v0z" />
<glyph unicode="&#xe914;" glyph-name="featuredleft_thick" horiz-adv-x="756" d="M756.413 8.419h-43.451c-141.941 0-258.173 116.232-258.173 258.173v27.881c-7.966 0-13.76-3.621-17.743-6.518-56.487-41.279-112.611-82.195-169.098-123.112-7.604-5.431-15.57-8.328-23.174-8.328-6.518 0-13.397 1.81-20.277 5.431-14.122 7.604-21.364 19.553-21.001 36.934 0 4.707 1.81 10.501 3.259 15.208 21.001 64.815 42.003 129.267 63.366 194.082 6.156 18.467-2.897 29.33-11.225 35.485-56.124 40.192-111.887 81.109-167.649 121.663-16.294 11.949-22.088 31.14-14.846 49.245 6.518 16.294 21.364 25.347 41.279 25.347h206.393c13.76 0 23.536 7.242 27.881 20.277 21.364 66.263 42.727 132.526 64.453 198.789 5.793 17.018 16.656 26.433 34.037 28.243 1.086 0.362 3.259 0.362 5.069 0.362 18.829 0 32.588-10.501 38.744-30.054l7.604-23.174c17.743-54.676 35.485-109.352 53.228-164.028 43.813 34.037 98.489 54.314 157.873 54.314h43.451v72.419h-43.451c-40.192 0-78.936-7.242-115.87-21.001-8.69 26.795-17.38 53.59-26.071 80.747l-7.604 23.174c-16.294 49.245-57.573 80.023-107.904 80.023-5.069 0-10.139-0.362-15.208-1.086-44.537-5.069-78.936-33.313-93.42-77.488-18.467-56.124-36.571-112.611-55.038-169.098h-175.253c-49.245 0-90.523-27.157-108.266-70.608-19.915-48.883-4.345-103.197 39.106-134.699 47.796-34.761 95.593-69.884 143.751-104.283-18.105-55.4-36.209-110.801-53.952-166.201-3.259-10.139-6.518-22.812-6.518-37.296 0-43.451 21.364-80.023 59.021-100.662 18.105-9.414 36.209-14.122 54.676-14.122 22.812 0 45.624 7.604 65.539 21.726 28.967 21.001 57.935 42.003 86.902 63.004 41.641-134.699 167.649-233.188 315.745-233.188h43.451v72.419z" />
<glyph unicode="&#xe915;" glyph-name="featuredleft" horiz-adv-x="775" d="M727.866-25.035c-152.743 0-277.82 125.078-277.82 277.82v30.003c-8.572 0-14.807-3.896-19.093-7.014-60.785-44.42-121.181-88.451-181.967-132.481-8.183-5.845-16.755-8.962-24.938-8.962-7.014 0-14.417 1.948-21.82 5.845-15.196 8.183-22.989 21.041-22.6 39.744 0 5.065 1.948 11.3 3.507 16.365 22.6 69.747 45.199 139.105 68.189 208.852 6.624 19.872-3.117 31.562-12.079 38.186-60.396 43.251-120.402 87.282-180.408 130.922-18.314 12.858-24.548 33.9-16.365 52.992 7.014 17.534 22.989 27.275 44.42 27.275h222.1c14.807 0 25.327 7.793 30.003 21.82 22.989 71.306 45.979 142.612 69.358 213.918 6.234 18.314 17.924 28.444 36.627 30.393 1.948 0.39 3.896 0.39 6.234 0.39 20.262 0 35.068-11.3 41.693-32.341l8.183-24.938c19.093-58.837 38.186-117.674 57.279-176.511 47.148 36.627 105.985 58.447 169.887 58.447h46.758v38.965h-46.758c-52.213 0-102.868-12.858-148.067-37.406-13.638 42.861-27.665 85.333-41.693 128.195l-8.572 25.327c-12.079 37.017-41.303 59.227-78.709 59.227-3.896 0-7.403-0.39-11.3-0.779-33.12-3.507-57.668-23.769-68.578-56.889-22.989-69.358-45.589-139.105-67.799-208.852h-217.035c-37.406 0-67.409-19.482-80.268-51.823-14.417-35.458-3.117-75.202 28.834-98.581 59.227-43.251 118.064-86.113 177.68-128.974-22.6-68.968-44.81-137.157-67.020-205.735-2.728-8.572-5.065-17.924-5.065-28.444 0-32.341 15.196-58.837 43.251-74.033 13.248-7.014 26.886-10.521 40.134-10.521 16.365 0 33.12 5.455 47.927 16.365 47.537 34.289 94.685 68.578 141.833 102.868 18.703-156.639 152.743-278.6 314.447-278.6h46.758v38.965h-47.148z" />
<glyph unicode="&#xe916;" glyph-name="Fichier-1" horiz-adv-x="980" d="M100.48 520.501c-4.287-21.799-6.739-46.863-6.739-72.501s2.453-50.702 7.137-74.972l-0.397 2.471-88.227-50.649c-7.359-4.42-12.206-12.359-12.206-21.43 0-2.704 0.431-5.308 1.228-7.746l-0.050 0.176c24.228-75.296 62.869-140.036 113.020-193.919l-0.286 0.311c4.555-4.835 11.001-7.846 18.15-7.846 4.598 0 8.904 1.245 12.601 3.417l-0.117-0.064 87.818 50.649c35.497-30.558 77.124-55.222 122.629-71.823l2.767-0.883v-101.297c0-0.026 0-0.056 0-0.087 0-11.8 8.34-21.652 19.446-23.984l0.16-0.028c33.875-7.983 72.77-12.56 112.734-12.56s78.859 4.577 116.189 13.235l-3.455-0.675c11.041 2.351 19.203 12.020 19.203 23.596 0 0.177-0.002 0.353-0.006 0.529v-0.026 99.663c48.319 17.279 89.976 41.969 125.879 73.115l-0.483-0.41 88.227-50.649c3.58-2.108 7.887-3.353 12.484-3.353 7.149 0 13.595 3.011 18.138 7.834l0.012 0.013c50.511 53.943 89.591 119.255 112.951 191.629l1.008 3.613c0.707 2.204 1.115 4.739 1.115 7.369 0 9.212-4.999 17.256-12.432 21.568l-0.119 0.064-87.818 50.649c4.287 21.799 6.739 46.863 6.739 72.501s-2.453 50.702-7.137 74.972l0.397-2.471 87.818 50.649c7.552 4.376 12.551 12.42 12.551 21.631 0 2.63-0.408 5.165-1.163 7.545l0.048-0.176c-24.199 76.455-63.306 142.199-114.235 196.766l0.276-0.299c-4.496 4.898-10.928 7.956-18.074 7.956-4.637 0-8.973-1.288-12.67-3.525l0.109 0.061-88.227-51.874c-35.42 30.736-77.077 55.426-122.679 71.851l-2.717 0.854v101.297c0.003 0.15 0.005 0.326 0.005 0.503 0 11.576-8.162 21.246-19.045 23.568l-0.158 0.028c-33.875 7.983-72.77 12.56-112.734 12.56s-78.859-4.577-116.189-13.235l3.455 0.675c-11.266-2.36-19.606-12.212-19.606-24.012 0-0.030 0-0.061 0-0.091v0.005-101.297c-48.273-17.484-89.9-42.147-125.919-73.145l0.523 0.44-87.818 50.649c-3.755 2.458-8.354 3.92-13.295 3.92-6.772 0-12.903-2.747-17.339-7.187v0c-50.654-54.269-89.761-120.013-112.965-192.853l-0.994-3.615c-0.747-2.262-1.178-4.866-1.178-7.57 0-9.071 4.848-17.010 12.094-21.368l0.112-0.063zM216.482 466.585l218.524 218.524c4.76 4.92 11.421 7.974 18.796 7.974 14.437 0 26.141-11.704 26.141-26.141 0-0.219-0.003-0.436-0.008-0.654l0.001 0.032v-147.861h255.285c14.486-0.23 26.141-12.027 26.141-26.547 0-0.001 0-0.002 0-0.003v0-88.227c0-14.437-11.704-26.141-26.141-26.141v0h-255.285v-147.861c-0.207-14.504-12.013-26.183-26.547-26.183-7.139 0-13.621 2.818-18.392 7.402l0.009-0.008-218.524 218.116c-4.814 4.806-7.792 11.45-7.792 18.789s2.978 13.983 7.791 18.789v0z" />
<glyph unicode="&#xe917;" glyph-name="Fichier-2" horiz-adv-x="980" d="M879.815 375.499c4.287 21.799 6.739 46.863 6.739 72.501s-2.453 50.702-7.137 74.972l0.397-2.471 87.818 50.649c8.14 4.211 13.608 12.568 13.608 22.202 0 2.421-0.345 4.761-0.989 6.975l0.044-0.176c-24.199 76.455-63.306 142.199-114.235 196.766l0.276-0.299c-4.496 4.898-10.928 7.956-18.074 7.956-4.637 0-8.973-1.288-12.67-3.525l0.109 0.061-88.227-51.874c-35.42 30.736-77.077 55.426-122.679 71.851l-2.717 0.854v101.297c0.001 0.076 0.001 0.166 0.001 0.256 0 11.732-8.109 21.571-19.029 24.216l-0.17 0.035c-33.878 7.887-72.778 12.408-112.734 12.408s-78.856-4.521-116.217-13.079l3.483 0.671c-11.269-2.358-19.611-12.211-19.611-24.013 0-0.174 0.002-0.347 0.005-0.52v0.026-101.297c-48.273-17.484-89.9-42.147-125.919-73.145l0.523 0.44-87.818 50.649c-3.755 2.458-8.354 3.92-13.295 3.92-6.772 0-12.903-2.747-17.339-7.187v0c-50.654-54.269-89.761-120.013-112.965-192.853l-0.994-3.615c-0.747-2.262-1.178-4.866-1.178-7.57 0-9.071 4.848-17.010 12.094-21.368l0.112-0.063 88.227-50.649c-4.287-21.799-6.739-46.863-6.739-72.501s2.453-50.702 7.137-74.972l-0.397 2.471-87.001-50.649c-7.359-4.42-12.206-12.359-12.206-21.43 0-2.704 0.431-5.308 1.228-7.746l-0.050 0.176c24.228-75.296 62.869-140.036 113.020-193.919l-0.286 0.311c4.555-4.835 11.001-7.846 18.15-7.846 4.598 0 8.904 1.245 12.601 3.417l-0.117-0.064 87.818 50.649c35.497-30.558 77.124-55.222 122.629-71.823l2.767-0.883v-101.297c0-0.026 0-0.056 0-0.087 0-11.8 8.34-21.652 19.446-23.984l0.16-0.028c33.875-7.983 72.77-12.56 112.734-12.56s78.859 4.577 116.189 13.235l-3.455-0.675c11.041 2.351 19.203 12.020 19.203 23.596 0 0.177-0.002 0.353-0.006 0.529v-0.026 99.663c48.319 17.279 89.976 41.969 125.879 73.115l-0.483-0.41 88.227-50.649c3.58-2.108 7.887-3.353 12.484-3.353 7.149 0 13.595 3.011 18.138 7.834l0.012 0.013c50.511 53.943 89.591 119.255 112.951 191.629l1.008 3.613c0.707 2.204 1.115 4.739 1.115 7.369 0 9.212-4.999 17.256-12.432 21.568l-0.119 0.064zM763.813 429.007l-218.524-218.524c-4.806-4.814-11.45-7.792-18.789-7.792-14.663 0-26.55 11.887-26.55 26.55 0 0.011 0 0.022 0 0.033v-0.002 148.27h-254.877c-14.571 0.226-26.324 11.979-26.549 26.528v88.248c0.23 14.486 12.027 26.141 26.547 26.141 0.001 0 0.002 0 0.003 0h255.693v147.861c0 0.009 0 0.020 0 0.031 0 14.663 11.887 26.55 26.55 26.55 7.339 0 13.983-2.978 18.789-7.791v0l218.524-218.116c4.598-4.826 7.427-11.374 7.427-18.582 0-7.616-3.158-14.494-8.236-19.397l-0.008-0.008z" />
<glyph unicode="&#xe918;" glyph-name="fileformat" horiz-adv-x="1158" d="M1095.235 688.417c-66.783 71.235-151.374 155.826-222.609 227.061-17.809 17.809-40.070 26.713-66.783 26.713h-360.626c-8.904 0-22.261 0-31.165-4.452-57.878-8.904-93.496-57.878-93.496-115.757v-44.522h-182.539c-66.783 0-120.209-53.426-120.209-120.209v-218.157c0-53.426 35.617-97.948 89.043-115.757 8.904 22.261 17.809 40.070 26.713 57.878-31.165 4.452-53.426 26.713-53.426 57.878v218.157c0 31.165 26.713 57.878 57.878 57.878h454.122c31.165 0 57.878-26.713 57.878-57.878v-218.157c0-31.165-26.713-57.878-57.878-57.878h-284.939c-13.357-17.809-26.713-40.070-35.617-57.878h48.974v-244.87c0-8.904 0-17.809 4.452-26.713 13.357-57.878 57.878-93.496 120.209-93.496h565.426c13.357 0 26.713 0 40.070 4.452 53.426 13.357 89.043 57.878 89.043 120.209v543.165c-4.452 22.261-22.261 44.522-44.522 62.33zM1077.426 78.47c0-40.070-26.713-66.783-66.783-66.783h-565.426c-40.070 0-66.783 26.713-66.783 66.783v244.87h213.704c66.783 0 120.209 53.426 120.209 120.209v213.704c0 66.783-53.426 120.209-120.209 120.209h-213.704v40.070c0 40.070 26.713 66.783 66.783 66.783v0c106.852 0 320.557 0 320.557 0v-195.896c0-62.33 40.070-111.304 97.948-124.661 8.904 0 22.261-4.452 35.617-4.452h178.087v-480.835zM885.983 621.635c-35.617 0-62.33 31.165-66.783 62.33 0 35.617 0 71.235 0 106.852v93.496l258.226-262.678h-191.443zM396.243 541.496v-80.139c0-17.809 13.357-31.165 31.165-31.165s31.165 13.357 31.165 31.165v178.087h-178.087c-17.809 0-31.165-13.357-31.165-31.165s13.357-31.165 31.165-31.165h71.235c-169.183-142.47-267.13-360.626-267.13-601.043 0-17.809 13.357-31.165 31.165-31.165s31.165 13.357 31.165 31.165c-8.904 231.513 89.043 436.313 249.322 565.426z" />
<glyph unicode="&#xe919;" glyph-name="formats-small" horiz-adv-x="1331" d="M30.72 919.040v-931.84h1249.28v931.84h-1249.28zM143.36 806.4h624.64v-430.080h-624.64v430.080zM1167.36 89.6h-1024v184.32h727.040v532.48h296.96v-716.8z" />
<glyph unicode="&#xe91a;" glyph-name="formats" horiz-adv-x="1212" d="M0 960v-1029.094h1212.497v1029.094h-1212.497zM769.274 903.96v-570.587h-713.234v570.587h713.234zM1151.363-7.96h-1095.323v280.199h769.274v631.721h326.050v-911.92z" />
<glyph unicode="&#xe91b;" horiz-adv-x="222" d="M105.080 779.46c-49.366-34.556-105.080-83.218-105.080-203.813v-599.449c0-21.862 18.336-40.198 40.198-40.198h182.656v1024c-0.705-55.008-7.758-101.554-117.774-180.54z" />
<glyph unicode="&#xe91c;" horiz-adv-x="222" d="M123.416 299.196c0-14.022-11.367-25.388-25.388-25.388s-25.388 11.367-25.388 25.388c0 14.022 11.367 25.388 25.388 25.388s25.388-11.367 25.388-25.388z" />
<glyph unicode="&#xe91d;" horiz-adv-x="222" d="M208.749 299.196c0-14.022-11.367-25.388-25.388-25.388s-25.388 11.367-25.388 25.388c0 14.022 11.367 25.388 25.388 25.388s25.388-11.367 25.388-25.388z" />
<glyph unicode="&#xe91e;" horiz-adv-x="222" d="M123.416 215.273c0-14.022-11.367-25.388-25.388-25.388s-25.388 11.367-25.388 25.388c0 14.022 11.367 25.388 25.388 25.388s25.388-11.367 25.388-25.388z" />
<glyph unicode="&#xe91f;" horiz-adv-x="222" d="M208.749 215.273c0-14.022-11.367-25.388-25.388-25.388s-25.388 11.367-25.388 25.388c0 14.022 11.367 25.388 25.388 25.388s25.388-11.367 25.388-25.388z" />
<glyph unicode="&#xe920;" horiz-adv-x="222" d="M123.416 131.35c0-14.022-11.367-25.388-25.388-25.388s-25.388 11.367-25.388 25.388c0 14.022 11.367 25.388 25.388 25.388s25.388-11.367 25.388-25.388z" />
<glyph unicode="&#xe921;" horiz-adv-x="222" d="M208.749 131.35c0-14.022-11.367-25.388-25.388-25.388s-25.388 11.367-25.388 25.388c0 14.022 11.367 25.388 25.388 25.388s25.388-11.367 25.388-25.388z" />
<glyph unicode="&#xe922;" horiz-adv-x="222" d="M123.416 47.427c0-14.022-11.367-25.388-25.388-25.388s-25.388 11.367-25.388 25.388c0 14.022 11.367 25.388 25.388 25.388s25.388-11.367 25.388-25.388z" />
<glyph unicode="&#xe923;" horiz-adv-x="222" d="M208.749 47.427c0-14.022-11.367-25.388-25.388-25.388s-25.388 11.367-25.388 25.388c0 14.022 11.367 25.388 25.388 25.388s25.388-11.367 25.388-25.388z" />
<glyph unicode="&#xe924;" horiz-adv-x="222" d="M123.416 550.259c0-14.022-11.367-25.388-25.388-25.388s-25.388 11.367-25.388 25.388c0 14.022 11.367 25.388 25.388 25.388s25.388-11.367 25.388-25.388z" />
<glyph unicode="&#xe925;" horiz-adv-x="222" d="M208.749 550.259c0-14.022-11.367-25.388-25.388-25.388s-25.388 11.367-25.388 25.388c0 14.022 11.367 25.388 25.388 25.388s25.388-11.367 25.388-25.388z" />
<glyph unicode="&#xe926;" horiz-adv-x="222" d="M123.416 466.336c0-14.022-11.367-25.388-25.388-25.388s-25.388 11.367-25.388 25.388c0 14.022 11.367 25.388 25.388 25.388s25.388-11.367 25.388-25.388z" />
<glyph unicode="&#xe927;" horiz-adv-x="222" d="M208.749 466.336c0-14.022-11.367-25.388-25.388-25.388s-25.388 11.367-25.388 25.388c0 14.022 11.367 25.388 25.388 25.388s25.388-11.367 25.388-25.388z" />
<glyph unicode="&#xe928;" horiz-adv-x="222" d="M123.416 382.413c0-14.022-11.367-25.388-25.388-25.388s-25.388 11.367-25.388 25.388c0 14.022 11.367 25.388 25.388 25.388s25.388-11.367 25.388-25.388z" />
<glyph unicode="&#xe929;" horiz-adv-x="222" d="M208.749 382.413c0-14.022-11.367-25.388-25.388-25.388s-25.388 11.367-25.388 25.388c0 14.022 11.367 25.388 25.388 25.388s25.388-11.367 25.388-25.388z" />
<glyph unicode="&#xe92a;" horiz-adv-x="222" d="M123.416 634.182c0-14.022-11.367-25.388-25.388-25.388s-25.388 11.367-25.388 25.388c0 14.022 11.367 25.388 25.388 25.388s25.388-11.367 25.388-25.388z" />
<glyph unicode="&#xe92b;" horiz-adv-x="222" d="M208.749 634.182c0-14.022-11.367-25.388-25.388-25.388s-25.388 11.367-25.388 25.388c0 14.022 11.367 25.388 25.388 25.388s25.388-11.367 25.388-25.388z" />
<glyph unicode="&#xe92c;" glyph-name="linked" horiz-adv-x="1084" d="M716.8 381.741c6.024 6.024 12.047 18.071 12.047 30.118s-6.024 24.094-18.071 36.141c-6.024 6.024-18.071 12.047-30.118 12.047s-24.094-6.024-30.118-12.047l-66.259-72.282c-36.141-36.141-84.329-54.212-132.518-54.212s-96.376 18.071-132.518 54.212l-126.494 120.471c-18.071 18.071-36.141 36.141-54.212 60.235-66.259 78.306-60.235 192.753 18.071 265.035 36.141 30.118 78.306 48.188 126.494 48.188 54.212 0 102.4-18.071 138.541-54.212 18.071-24.094 36.141-36.141 54.212-54.212 6.024-12.047 18.071-12.047 36.141-12.047s24.094 6.024 30.118 12.047c18.071 18.071 18.071 42.165-6.024 66.259-18.071 12.047-36.141 30.118-54.212 48.188-72.282 78.306-204.8 96.376-301.176 60.235-90.353-36.141-156.612-108.424-174.682-198.776s12.047-180.706 78.306-252.988c54.212-54.212 114.447-108.424 168.659-168.659 54.212-48.188 126.494-78.306 204.8-78.306 60.235 0 114.447 18.071 162.635 54.212 30.118 18.071 60.235 54.212 96.376 90.353zM999.906 423.906c-36.141 36.141-72.282 78.306-114.447 114.447l-54.212 54.212c-54.212 54.212-126.494 78.306-198.776 78.306-78.306 0-144.565-24.094-198.776-72.282-18.071-24.094-42.165-48.188-66.259-66.259-18.071-24.094-18.071-48.188 0-66.259 6.024-6.024 18.071-12.047 30.118-12.047s24.094 6.024 36.141 18.071l60.235 60.235c36.141 36.141 84.329 54.212 132.518 54.212s96.376-18.071 132.518-54.212c42.165-42.165 84.329-78.306 120.471-120.471 42.165-42.165 84.329-72.282 102.4-132.518 12.047-48.188 6.024-102.4-18.071-144.565-12.047-18.071-24.094-36.141-42.165-48.188-30.118-30.118-78.306-48.188-126.494-48.188-54.212 0-102.4 18.071-138.541 54.212l-54.212 54.212c-12.047 12.047-24.094 18.071-36.141 18.071s-18.071-6.024-30.118-12.047c-18.071-18.071-18.071-42.165 6.024-66.259 12.047-12.047 24.094-24.094 36.141-36.141l18.071-18.071c54.212-54.212 120.471-78.306 198.776-78.306 36.141 0 72.282 6.024 108.424 24.094 90.353 36.141 150.588 108.424 168.659 198.776 24.094 84.329-6.024 174.682-72.282 246.965z" />
<glyph unicode="&#xe92d;" glyph-name="linkedassets" horiz-adv-x="1117" d="M664.669 403.316c2.793 3.724 6.516 9.309 6.516 16.756 0 8.378-2.793 14.895-9.309 20.48-4.655 2.793-10.24 5.585-17.687 5.585s-14.895-1.862-19.549-7.447l-39.098-39.098c-20.48-20.48-49.338-32.582-80.058-32.582-29.789 0-58.647 12.102-80.058 32.582l-76.335 75.404c-12.102 12.102-23.273 23.273-33.513 35.375-40.96 48.407-35.375 119.156 12.102 161.047 21.411 18.618 48.407 28.858 76.335 28.858 31.651 0 62.371-12.102 83.782-33.513 9.309-10.24 19.549-20.48 29.789-29.789 6.516-6.516 13.964-9.309 21.411-9.309s13.033 3.724 17.687 7.447c11.171 10.24 10.24 26.065-3.724 40.029-9.309 9.309-19.549 19.549-29.789 30.72-31.651 30.72-70.749 46.545-117.295 48.407-24.204-1.862-44.684-5.585-63.302-12.102-53.993-22.342-92.16-67.025-103.331-121.949-12.102-55.855 5.585-111.709 46.545-154.531 33.513-34.444 67.025-67.956 101.469-101.469 30.72-30.72 74.473-48.407 119.156-48.407 37.236 0 69.818 11.171 97.745 32.582 19.549 13.964 38.167 32.582 60.509 54.924zM832.233 429.382c-21.411 23.273-44.684 46.545-67.025 68.887l-33.513 34.444c-32.582 32.582-74.473 49.338-120.087 49.338-44.684 0-85.644-16.756-117.295-46.545-13.033-13.033-26.065-26.065-39.098-40.029-11.171-13.033-11.171-27.927 0.931-40.029 3.724-2.793 9.309-5.585 16.756-5.585 8.378 0 15.825 3.724 20.48 9.309l37.236 37.236c21.411 20.48 51.2 32.582 80.989 32.582s58.647-12.102 80.058-32.582l100.538-101.469c3.724-2.793 8.378-7.447 11.171-11.171 39.098-49.338 32.582-118.225-14.895-161.047-19.549-17.687-46.545-27.927-75.404-27.927-31.651 0-62.371 12.102-83.782 34.444l-30.72 31.651c-7.447 6.516-14.895 9.309-21.411 9.309s-12.102-2.793-17.687-7.447c-11.171-12.102-11.171-26.996 1.862-40.029 6.516-7.447 13.964-13.964 20.48-20.48l10.24-10.24c33.513-33.513 72.611-49.338 120.087-49.338 21.411 0 43.753 4.655 64.233 13.033 53.993 22.342 90.298 66.095 101.469 121.018 12.102 53.993-4.655 109.847-45.615 152.669z" />
<glyph unicode="&#xe92e;" glyph-name="list_archived" horiz-adv-x="1182" d="M590.769-52.185c0 0-3.938 0-3.938 0-106.338 43.323-582.892 224.492-582.892 224.492 0 102.4 0 39.385 0 66.954v189.046c0 98.462 0 200.862 0 299.323l291.446 106.338 295.385 106.338h3.938l582.892-212.677c0-256 0-303.262 0-559.262 0 7.877-476.554-177.231-586.831-220.554v0zM1102.769 676.431l-102.4-39.385c-122.092-47.262-244.185-94.523-370.215-141.785-19.692-7.877-19.692-27.569-19.692-31.508 0-173.292 0-460.8 0-460.8l35.446 11.815 102.4 39.385c122.092 47.262 244.185 94.523 362.338 141.785 15.754 7.877 23.631 15.754 23.631 35.446 0 173.292 0 141.785 0 315.077v141.785l-31.508-11.815zM47.262 546.462c0-173.292 0-145.723 0-319.015 0-15.754 7.877-27.569 23.631-35.446 118.154-47.262 236.308-90.585 354.462-137.846l110.277-43.323c3.938 0 11.815-3.938 11.815-3.938l23.631-7.877v157.538c0 169.354 0 133.908 0 299.323 0 15.754-7.877 23.631-19.692 31.508-39.385 15.754-78.769 31.508-118.154 43.323l-39.385 23.631c-3.938 0-11.815 3.938-11.815 3.938l-27.569 7.877v-208.738l-15.754 3.938c-35.446 15.754-70.892 27.569-106.338 39.385 0 63.015 0 126.031 0 185.108 0 7.877-3.938 23.631-15.754 27.569-39.385 15.754-82.708 31.508-122.092 47.262l-47.262 27.569v-141.785zM894.031 790.646c-3.938 0-11.815 0-15.754-3.938-74.831-27.569-145.723-55.138-220.554-82.708l-263.877-102.4 55.138-23.631 35.446-15.754c31.508-11.815 59.077-23.631 90.585-35.446 3.938 0 7.877 0 15.754 0s11.815 0 19.692 3.938c90.585 35.446 362.338 141.785 362.338 141.785l122.092 47.262-55.138 19.692-31.508 11.815c-31.508 11.815-63.015 23.631-94.523 35.446-7.877 0-11.815 3.938-19.692 3.938zM590.769 900.923c-3.938 0-11.815 0-15.754-3.938-137.846-51.2-275.692-102.4-413.538-153.6l-19.692-3.938c-3.938 0-11.815-3.938-11.815-3.938l-39.385-15.754 74.831-27.569c27.569-11.815 55.138-19.692 82.708-31.508 7.877-3.938 11.815-3.938 19.692-3.938s11.815 0 19.692 3.938c78.769 27.569 153.6 59.077 232.369 86.646l252.062 94.523-63.015 19.692-23.631 7.877c-27.569 11.815-55.138 19.692-78.769 27.569-3.938 3.938-11.815 3.938-15.754 3.938z" />
<glyph unicode="&#xe92f;" glyph-name="list_lightbox" d="M630.568 938.442h377.263v-377.263h-377.263v377.263zM21.558 938.442h377.263v-377.263h-377.263v377.263zM630.568 329.432h377.263v-377.263h-377.263v377.263zM21.558 329.432h377.263v-377.263h-377.263v377.263z" />
<glyph unicode="&#xe930;" glyph-name="list_onhold" horiz-adv-x="1354" d="M990.968 187.045c0-13.213 0-23.123 0-33.032 0-13.213-6.606-19.819-16.516-26.426-69.368-26.426-142.039-56.155-211.406-82.581-82.581-33.032-165.161-66.065-247.742-95.794-9.91-3.303-19.819-3.303-29.729 0-151.948 59.458-303.897 118.916-455.845 178.374-16.516 6.606-19.819 6.606-19.819 26.426 0 125.523 0 251.045 0 373.265 0 19.819 0 23.123 19.819 29.729 142.039 49.548 284.077 95.794 429.419 145.342 3.303 0 3.303 3.303 6.606 3.303-3.303 3.303-3.303 9.91-6.606 13.213-16.516 33.032-36.335 66.065-52.852 99.097-6.606 13.213-6.606 19.819 3.303 33.032 33.032 29.729 62.761 62.761 95.794 92.49 9.91 9.91 16.516 9.91 29.729 6.606 175.071-69.368 346.839-135.432 521.91-204.8 6.606-3.303 13.213-9.91 16.516-13.213 89.187-165.161 178.374-333.626 264.258-502.090 6.606-9.91 3.303-19.819-3.303-29.729-33.032-29.729-62.761-62.761-95.794-95.794-9.91-9.91-16.516-9.91-29.729-6.606-69.368 26.426-135.432 52.852-204.8 79.277-3.303 6.606-6.606 6.606-13.213 9.91zM957.935 510.761c-6.606-3.303-9.91-3.303-13.213-3.303-138.735-52.852-277.471-109.006-416.206-161.858-9.91-3.303-9.91-6.606-9.91-16.516 0-109.006 0-218.013 0-330.323 0-3.303 0-6.606 0-13.213 3.303 0 6.606 3.303 9.91 3.303 138.735 52.852 277.471 109.006 416.206 161.858 9.91 3.303 9.91 6.606 9.91 16.516 0 85.884 0 171.768 0 257.652 3.303 29.729 3.303 56.155 3.303 85.884zM46.245 510.761c0-6.606 0-9.91 0-13.213 0-109.006 0-218.013 0-327.019 0-9.91 3.303-13.213 13.213-16.516 138.735-52.852 274.168-105.703 412.903-161.858 3.303 0 6.606-3.303 13.213-3.303 0 3.303 0 6.606 0 6.606 0 112.31 0 224.619 0 336.929 0 9.91-3.303 9.91-9.91 13.213-138.735 52.852-277.471 105.703-416.206 161.858-3.303 0-6.606 3.303-13.213 3.303zM82.581 537.187c3.303-3.303 6.606-3.303 6.606-3.303 135.432-52.852 270.865-105.703 406.297-158.555 6.606-3.303 13.213 0 16.516 0 132.129 52.852 264.258 102.4 396.387 155.252 3.303 0 6.606 3.303 13.213 6.606-6.606 3.303-6.606 3.303-9.91 3.303-135.432 42.942-270.865 89.187-406.297 132.129-6.606 3.303-13.213 0-19.819 0-99.097-33.032-198.194-66.065-300.594-102.4-33.032-9.91-66.065-23.123-102.4-33.032zM977.755 619.768c82.581-155.252 168.465-313.806 251.045-475.665 23.123 23.123 42.942 46.245 66.065 69.368 6.606 6.606 6.606 13.213 3.303 19.819-79.277 151.948-161.858 303.897-241.135 455.845-3.303 3.303-3.303 6.606-6.606 9.91-26.426-26.426-49.548-52.852-72.671-79.277zM1020.697 722.168c-3.303 0-6.606 3.303-9.91 3.303-42.942 16.516-82.581 33.032-125.523 49.548-115.613 46.245-231.226 89.187-346.839 135.432-3.303 0-9.91 3.303-13.213 0-23.123-23.123-46.245-46.245-69.368-72.671 0 0 6.606-3.303 9.91-3.303 36.335-13.213 72.671-29.729 109.006-42.942 122.219-46.245 241.135-95.794 363.355-142.039 3.303 0 9.91-3.303 13.213 0 23.123 23.123 46.245 46.245 69.368 72.671zM1182.555 150.71c0 3.303 0 3.303 0 3.303-19.819 39.639-42.942 79.277-62.761 122.219-3.303 3.303-6.606 6.606-9.91 6.606-36.335 13.213-72.671 29.729-109.006 42.942-3.303 0-3.303 0-6.606 0 0-29.729 0-62.761 0-92.49 0-6.606 3.303-9.91 9.91-13.213 36.335-13.213 72.671-29.729 112.31-42.942 19.819-9.91 42.942-16.516 66.065-26.426zM657.342 722.168c13.213-23.123 23.123-42.942 33.032-62.761 3.303-6.606 9.91-13.213 16.516-13.213 56.155-16.516 109.006-36.335 165.161-52.852 29.729-9.91 62.761-19.819 95.794-29.729-9.91 16.516-13.213 29.729-23.123 42.942-3.303 6.606-9.91 9.91-13.213 13.213-56.155 23.123-112.31 42.942-168.465 66.065-36.335 9.91-69.368 23.123-105.703 36.335zM462.452 798.142c0-3.303 0-3.303 0-3.303 13.213-26.426 26.426-52.852 42.942-79.277 3.303-3.303 6.606-6.606 9.91-6.606 42.942-13.213 85.884-26.426 128.826-42.942 0 0 3.303 0 6.606 0-6.606 13.213-16.516 26.426-19.819 39.639-9.91 29.729-29.729 46.245-59.458 52.852-39.639 9.91-75.974 26.426-109.006 39.639zM1090.065 329.084c-33.032 62.761-62.761 122.219-95.794 178.374 0-3.303-3.303-3.303-3.303-3.303 0-42.942 0-89.187 0-132.129 0-3.303 3.303-6.606 3.303-6.606 33.032-13.213 62.761-23.123 95.794-36.335z" />
<glyph unicode="&#xe931;" glyph-name="list_retouch" d="M892.8 467.2l-28.8 41.6-16 22.4c-12.8 19.2-25.6 35.2-38.4 51.2 9.6 19.2 16 41.6 22.4 60.8l6.4 28.8c3.2 6.4 3.2 12.8 6.4 22.4l6.4 32c3.2 16 0 32-12.8 44.8-9.6 9.6-19.2 12.8-32 12.8-3.2 0-9.6 0-12.8 0 0 0-44.8-12.8-48-12.8l-22.4-6.4c-22.4-6.4-44.8-16-67.2-22.4-19.2 16-41.6 32-60.8 48l-9.6 6.4c-3.2 0-9.6 3.2-16 6.4l-28.8 19.2c-6.4 3.2-16 6.4-25.6 6.4-6.4 0-16-3.2-22.4-6.4-16-6.4-22.4-22.4-25.6-38.4l-3.2-48v-28.8c0-22.4 0-44.8 0-67.2-19.2-12.8-35.2-22.4-54.4-35.2l-22.4-16c-6.4-3.2-9.6-6.4-16-12.8l-28.8-22.4c-12.8-9.6-19.2-28.8-16-44.8s16-28.8 32-35.2l35.2-12.8c-3.2-3.2-6.4-6.4-9.6-9.6l-284.8-316.8c-12.8-16-28.8-32-44.8-48-3.2-3.2-6.4-6.4-9.6-9.6-12.8-12.8-25.6-28.8-35.2-48-12.8-32 0-67.2 28.8-80 9.6-6.4 19.2-6.4 28.8-6.4 16 0 35.2 6.4 54.4 22.4 25.6 19.2 51.2 41.6 73.6 64 9.6 9.6 19.2 19.2 28.8 25.6l291.2 262.4c3.2 3.2 6.4 6.4 9.6 9.6l12.8-35.2c6.4-16 19.2-25.6 38.4-28.8 3.2 0 6.4 0 6.4 0 12.8 0 28.8 6.4 38.4 19.2l32 38.4 19.2 25.6c12.8 16 25.6 35.2 38.4 51.2 19.2 0 99.2-3.2 99.2-3.2h48c16 0 32 9.6 41.6 25.6 3.2 16 3.2 32-6.4 48zM496 342.4c-9.6-9.6-22.4-19.2-32-28.8-25.6-22.4-51.2-44.8-76.8-70.4-32-28.8-64-57.6-96-86.4-28.8-25.6-57.6-51.2-86.4-76.8-32-28.8-64-60.8-99.2-89.6-12.8-9.6-32-19.2-44.8-9.6-12.8 6.4-16 25.6-12.8 38.4 6.4 19.2 22.4 32 35.2 44.8 16 16 28.8 32 44.8 48 22.4 25.6 44.8 51.2 67.2 76.8 25.6 28.8 51.2 57.6 76.8 83.2 22.4 25.6 48 51.2 70.4 76.8 16 19.2 35.2 38.4 51.2 57.6 6.4 6.4 12.8 16 19.2 22.4 9.6 9.6 19.2 16 32 16s25.6-3.2 38.4-9.6c6.4-3.2 12.8-9.6 19.2-16 6.4-9.6 12.8-22.4 12.8-35.2 3.2-22.4-12.8-38.4-19.2-41.6zM864 435.2c-3.2-3.2-6.4-6.4-9.6-6.4h-80c-28.8 0-54.4 0-83.2 3.2-16-22.4-32-44.8-48-67.2l-48-64c-3.2-3.2-6.4-3.2-9.6-3.2 0 0 0 0-3.2 0s-6.4 3.2-9.6 6.4l-12.8 35.2c-3.2 6.4-3.2 12.8-6.4 16l-3.2 16c-9.6 28.8-16 57.6-25.6 86.4 0 3.2 0 3.2 0 3.2s0 0 0 0c-25.6 6.4-51.2 16-76.8 22.4l-76.8 25.6c-3.2 0-6.4 3.2-6.4 9.6 0 3.2 0 9.6 3.2 9.6l28.8 22.4c3.2 3.2 9.6 6.4 12.8 9.6l22.4 16c22.4 16 44.8 28.8 70.4 44.8 0 0 0 0 0 3.2 0 28.8 0 54.4 0 83.2v28.8l3.2 44.8c0 3.2 3.2 6.4 6.4 9.6 3.2 0 3.2 0 6.4 0s3.2 0 6.4-3.2l28.8-19.2c6.4-3.2 9.6-6.4 16-9.6l9.6-6.4c25.6-19.2 48-38.4 73.6-57.6h6.4c25.6 9.6 54.4 19.2 80 28.8l22.4 6.4c3.2 0 48 12.8 48 12.8s3.2 0 3.2 0 6.4 0 6.4-3.2 3.2-6.4 3.2-9.6l-6.4-32c0-6.4-3.2-12.8-3.2-16l-9.6-25.6c-9.6-25.6-19.2-51.2-28.8-76.8 0 0 0 0 3.2-3.2 16-22.4 32-44.8 48-64l16-22.4 22.4-41.6c0-3.2 3.2-9.6 0-12.8zM947.2 553.6c-16 3.2-32 16-32 35.2 0 48 92.8 48 96-3.2-3.2-28.8-38.4-41.6-64-32zM371.2 716.8c0-25.6-22.4-44.8-44.8-44.8-25.6 0-44.8 19.2-44.8 44.8s19.2 41.6 44.8 41.6c25.6 0 44.8-19.2 44.8-41.6zM787.2 297.6c25.6 0 44.8-22.4 44.8-44.8s-22.4-44.8-44.8-44.8c-25.6 0-44.8 19.2-44.8 44.8-3.2 25.6 19.2 48 44.8 44.8zM694.4 854.4c-28.8 0-44.8 25.6-44.8 44.8 0 22.4 22.4 44.8 44.8 44.8s44.8-19.2 44.8-44.8c0-22.4-19.2-44.8-44.8-44.8zM899.2 851.2c12.8 0 22.4-9.6 22.4-19.2 0-12.8-9.6-22.4-22.4-22.4-9.6 0-22.4 9.6-22.4 22.4 3.2 9.6 12.8 19.2 22.4 19.2zM972.8 278.4c0 12.8 9.6 22.4 22.4 22.4s22.4-9.6 22.4-22.4c0-9.6-12.8-22.4-22.4-22.4-12.8 0-22.4 9.6-22.4 22.4zM601.6 579.2c-25.6 0-44.8 19.2-44.8 44.8 0 22.4 19.2 44.8 44.8 44.8s44.8-19.2 44.8-44.8c0-25.6-19.2-44.8-44.8-44.8zM694.4 502.4c0-12.8-9.6-22.4-19.2-22.4-12.8 0-22.4 9.6-22.4 19.2 0 12.8 9.6 22.4 19.2 22.4 12.8 0 22.4-9.6 22.4-19.2z" />
<glyph unicode="&#xe932;" glyph-name="list_video" horiz-adv-x="1393" d="M409.6-51.712c-24.576 0-49.152 32.768-73.728 98.304-4.096 8.192-8.192 12.288-8.192 16.384-4.096 8.192-8.192 16.384-12.288 20.48-12.288 12.288-24.576 16.384-40.96 16.384 0 0-131.072 0-184.32 0-49.152 0-81.92 32.768-81.92 81.92 0 229.376 0 458.752 0 688.128 0 53.248 32.768 81.92 86.016 81.92 77.824 0 151.552 0 229.376 0h290.816c49.152 0 98.304 0 147.456 0s262.144 0 311.296 0c69.632 0 143.36 0 212.992 0 32.768 0 57.344-8.192 73.728-24.576s24.576-40.96 24.576-73.728c-4.096-225.28 0-450.56 0-671.744 0-36.864-24.576-73.728-57.344-77.824-8.192 0-16.384-4.096-24.576-4.096-106.496 0-663.552 0-663.552 0-45.056 0-73.728-12.288-98.304-40.96-40.96-53.248-98.304-110.592-131.072-110.592zM339.968 124.416c4.096-12.288 12.288-24.576 16.384-40.96 8.192-20.48 16.384-40.96 24.576-57.344 8.192-20.48 24.576-20.48 32.768-20.48 16.384 0 32.768 12.288 40.96 24.576l12.288 12.288c16.384 16.384 16.384 16.384 24.576 24.576l16.384 16.384c32.768 36.864 77.824 57.344 126.976 57.344 36.864 0 65.536 0 94.208 0h323.584v770.048h-716.8v-782.336l4.096-4.096zM49.152 194.048c0-40.96 12.288-53.248 53.248-57.344h147.456c4.096 0 45.056 0 45.056 0v159.744h-245.76c0 0 0-86.016 0-102.4zM1101.824 140.8h106.496c32.768 0 65.536 0 98.304 0 16.384 0 36.864 16.384 40.96 36.864 0 24.576 0 49.152 0 73.728v49.152h-245.76v-159.744zM1101.824 341.504h241.664v163.84h-241.664v-163.84zM49.152 341.504h241.664v163.84h-241.664v-163.84zM1101.824 546.304h241.664v163.84h-241.664v-163.84zM49.152 550.4h241.664v163.84h-241.664v-163.84zM1101.824 755.2h245.76v114.688c0 24.576-16.384 40.96-40.96 40.96h-200.704v-155.648zM192.512 910.848c-36.864 0-69.632 0-102.4 0-16.384 0-36.864-16.384-36.864-36.864 0-24.576 0-49.152 0-73.728v-45.056h245.76v155.648h-106.496zM638.976 345.6l-139.264 167.936 36.864 32.768 102.4-126.976 274.432 290.816 36.864-32.768z" />
<glyph unicode="&#xe933;" glyph-name="list_visuals" horiz-adv-x="1377" d="M45.903-53.407c-31.779 0-42.372 10.593-42.372 42.372v88.276c0 10.593 3.531 21.186 14.124 28.248 7.062 3.531 10.593 14.124 10.593 21.186 0 165.959 0 370.759 0 536.717 0 7.062-3.531 17.655-10.593 21.186-10.593 7.062-14.124 17.655-14.124 31.779v91.807c0 21.186 14.124 35.31 35.31 35.31h120.055v74.152c0 21.186 10.593 35.31 31.779 35.31 31.779 0 63.559 0 95.338 0s63.559 0 95.338 0c21.186 0 31.779-14.124 31.779-35.31v-70.621h112.993c24.717 0 38.841-14.124 38.841-38.841v-84.745h734.455c31.779 0 56.497-10.593 70.621-35.31 7.062-10.593 10.593-21.186 10.593-31.779 0-67.090 0-169.49 0-236.579v-63.559c0-38.841-21.186-63.559-60.028-63.559-14.124 0-28.248 0-38.841 0-14.124 0-24.717 0-38.841 0-56.497-3.531-91.807-28.248-109.462-70.621-7.062-17.655-14.124-42.372-14.124-70.621-3.531-42.372-28.248-67.090-67.090-67.090h-483.752v-91.807c0-17.655-10.593-28.248-28.248-31.779-3.531 0-10.593 0-14.124 0h-480.221zM45.903-11.034h473.159v84.745h-473.159v-84.745zM540.248 112.552h501.407c21.186 0 28.248 10.593 28.248 28.248s3.531 31.779 3.531 42.372c14.124 67.090 52.966 109.462 112.993 130.648 17.655 3.531 35.31 7.062 52.966 7.062h14.124c10.593 0 21.186 0 35.31 0 7.062 0 14.124 0 21.186 0 14.124 0 21.186 10.593 21.186 24.717 0 88.276 0 215.393 0 303.669 0 14.124-7.062 24.717-21.186 28.248-7.062 0-10.593 0-17.655 0h-752.11v-564.966zM70.621 116.083h427.255v561.434h-427.255v-561.434zM45.903 719.89h473.159v81.214h-473.159v-81.214zM197.738 843.476h169.49v63.559h-169.49v-63.559zM158.897 172.579c-10.593 0-17.655 10.593-17.655 21.186v395.476c0 14.124 7.062 21.186 17.655 21.186s21.186-10.593 21.186-24.717v-395.476c0-10.593-7.062-17.655-21.186-17.655v0zM1112.276 546.869c-10.593 0-17.655 7.062-21.186 17.655 0 10.593 0 21.186 0 31.779s7.062 17.655 17.655 17.655c10.593 0 17.655-7.062 21.186-17.655 0-3.531 0-7.062 0-10.593v-17.655c0-14.124-7.062-21.186-17.655-21.186v0zM992.221 186.703c-10.593 0-17.655 7.062-21.186 17.655 0 10.593 0 21.186 0 31.779s10.593 21.186 21.186 21.186c10.593 0 17.655-7.062 17.655-21.186 0-3.531 0-31.779 0-31.779 3.531-7.062-7.062-14.124-17.655-17.655v0zM635.586 546.869c-10.593 0-17.655 7.062-21.186 17.655 0 10.593 0 21.186 0 31.779s10.593 17.655 17.655 17.655c10.593 0 17.655-7.062 21.186-17.655 0-3.531 0-7.062 0-10.593v-21.186c0-10.593-7.062-17.655-17.655-17.655v0zM635.586 186.703c-10.593 0-17.655 7.062-21.186 17.655 0 10.593 0 21.186 0 31.779s10.593 21.186 21.186 21.186c10.593 0 17.655-7.062 17.655-21.186 0-3.531 0-31.779 0-31.779 0-7.062-7.062-14.124-17.655-17.655v0zM1228.8 546.869c-10.593 0-17.655 7.062-21.186 17.655 0 10.593 0 24.717 0 35.31s10.593 17.655 17.655 17.655c10.593 0 17.655-7.062 21.186-21.186 0-3.531 0-7.062 0-10.593v-10.593c0-3.531 0-7.062 0-10.593 3.531-10.593-3.531-17.655-17.655-17.655v0zM755.641 546.869c-10.593 0-17.655 7.062-21.186 17.655 0 10.593 0 24.717 0 35.31s10.593 17.655 17.655 17.655c10.593 0 17.655-7.062 21.186-21.186 0-3.531 0-7.062 0-10.593v-10.593c0-3.531 0-7.062 0-10.593 0-10.593-7.062-17.655-17.655-17.655v0zM875.697 546.869c-10.593 0-17.655 7.062-21.186 17.655 0 10.593 0 24.717 0 35.31s10.593 17.655 17.655 17.655c10.593 0 17.655-7.062 21.186-21.186 0-3.531 0-7.062 0-10.593v-10.593c0-3.531 0-7.062 0-10.593 0-10.593-7.062-17.655-17.655-17.655v0zM875.697 186.703c-10.593 0-17.655 7.062-21.186 17.655 0 10.593 0 24.717 0 35.31s10.593 17.655 17.655 17.655c10.593 0 17.655-7.062 21.186-21.186 0-3.531 0-7.062 0-10.593v-7.062c0-3.531 0-7.062 0-10.593 0-10.593-7.062-17.655-17.655-21.186v0zM748.579 239.669l-127.117 155.366 35.31 31.779 95.338-116.524 250.703 264.828 31.779-28.248z" />
<glyph unicode="&#xe934;" glyph-name="logohbt" horiz-adv-x="1928" d="M216.109 253.416v-115.015h-155.496v115.229h-60.613v-309.063h60.613v130.65h155.71v-130.65h60.185v308.849h-60.399zM588.784 253.416v-161.278c0-46.906-4.926-96.596-81.603-96.596-76.891 0-82.246 48.619-82.246 96.596v161.278h-60.185v-165.134c0-73.678 20.561-152.497 142.43-152.497s142.43 79.89 142.43 152.497v165.134c0 0-60.827 0-60.827 0zM1091.895 253.416v-308.849h208.612v62.541c0 0-132.792 0-147.999 0v246.308h-60.613zM1484.918 262.412c-92.74 0-165.562-71.322-165.562-162.349s72.822-162.349 165.562-162.349c92.955 0 165.562 71.322 165.562 162.349 0 90.813-72.607 162.349-165.562 162.349zM1484.918-2.958c-58.9 0-104.949 45.192-104.949 102.807s46.049 102.807 104.949 102.807 104.949-45.192 104.949-102.807-46.049-102.807-104.949-102.807zM1675.111 253.416v-62.755h97.024v-246.094h60.613v246.094h94.882v62.755c0 0-252.52 0-252.52 0zM965.957 106.488c18.634 14.564 29.343 35.768 29.343 61.684 0 25.702-10.495 85.244-106.448 85.244h-158.708v-309.063h168.989c67.895 0 107.091 34.269 107.091 94.026-0.214 29.129-14.136 52.474-40.266 68.11zM885.853 196.873c33.626 0 44.121-12.208 44.121-32.556s-8.996-34.912-42.836-34.912h-97.024v67.467h95.739zM895.277 0.897h-104.949v77.534h105.377c31.27 0 44.764-12.208 44.764-39.838 0-20.776-8.567-37.696-45.192-37.696zM1232.398 960h-57.615c0-104.735-26.344-152.283-81.389-185.267v185.267h-88.885v-223.819c-16.492-5.783-34.269-11.78-53.545-18.42-10.709-3.641-20.99-7.282-31.056-10.923v253.162h-88.885v-290.001c-89.742-45.621-138.361-108.59-138.361-251.020h57.615c0 97.238 23.774 145.215 80.746 181.197v-181.197h88.885v222.106c14.993 5.569 31.27 11.352 48.619 17.134 12.208 4.284 24.202 8.353 35.982 12.423v-251.663h88.885v286.789c84.387 40.909 139.004 102.164 139.004 254.233z" />
</font>
</defs>
</svg>
